<mxfile host="app.diagrams.net" agent="Mozilla/5.0 (Windows NT 10.0; Win64; x64) AppleWebKit/537.36 (KHTML, like Gecko) Chrome/138.0.0.0 Safari/537.36" version="28.0.4">
  <diagram id="C5RBs43oDa-KdzZeNtuy" name="Page-1">
    <mxGraphModel dx="1042" dy="527" grid="1" gridSize="10" guides="1" tooltips="1" connect="1" arrows="1" fold="1" page="1" pageScale="1" pageWidth="1200" pageHeight="1920" math="0" shadow="0">
      <root>
        <mxCell id="WIyWlLk6GJQsqaUBKTNV-0" />
        <mxCell id="WIyWlLk6GJQsqaUBKTNV-1" parent="WIyWlLk6GJQsqaUBKTNV-0" />
        <mxCell id="gwc9V1HpgXU685YZ8IqW-184" style="edgeStyle=orthogonalEdgeStyle;rounded=0;orthogonalLoop=1;jettySize=auto;html=1;exitX=0.5;exitY=1;exitDx=0;exitDy=0;entryX=0.5;entryY=0;entryDx=0;entryDy=0;" parent="WIyWlLk6GJQsqaUBKTNV-1" source="5hyIJKR7kFJG3S-LZw4L-1" target="5hyIJKR7kFJG3S-LZw4L-66" edge="1">
          <mxGeometry relative="1" as="geometry" />
        </mxCell>
        <mxCell id="5hyIJKR7kFJG3S-LZw4L-1" value="&lt;font data-font-src=&quot;https://fonts.googleapis.com/css?family=Sarabun&quot; face=&quot;Sarabun&quot;&gt;เริ่มต้น&lt;/font&gt;" style="ellipse;whiteSpace=wrap;html=1;" parent="WIyWlLk6GJQsqaUBKTNV-1" vertex="1">
          <mxGeometry x="545.5999999999999" y="40" width="130" height="30" as="geometry" />
        </mxCell>
        <mxCell id="gwc9V1HpgXU685YZ8IqW-185" style="edgeStyle=orthogonalEdgeStyle;rounded=0;orthogonalLoop=1;jettySize=auto;html=1;exitX=0.5;exitY=1;exitDx=0;exitDy=0;entryX=0.5;entryY=0;entryDx=0;entryDy=0;" parent="WIyWlLk6GJQsqaUBKTNV-1" source="5hyIJKR7kFJG3S-LZw4L-66" target="gwc9V1HpgXU685YZ8IqW-80" edge="1">
          <mxGeometry relative="1" as="geometry" />
        </mxCell>
        <mxCell id="5hyIJKR7kFJG3S-LZw4L-66" value="&lt;div style=&quot;text-align: justify;&quot;&gt;&lt;span style=&quot;background-color: transparent; color: light-dark(rgb(0, 0, 0), rgb(255, 255, 255));&quot;&gt;int money&amp;nbsp;&lt;/span&gt;&lt;/div&gt;&lt;div&gt;&lt;div style=&quot;text-align: justify;&quot;&gt;&lt;span style=&quot;background-color: transparent; color: light-dark(rgb(0, 0, 0), rgb(255, 255, 255));&quot;&gt;int pay&lt;/span&gt;&lt;/div&gt;&lt;div style=&quot;text-align: justify;&quot;&gt;int total price&amp;nbsp;&lt;/div&gt;&lt;div style=&quot;text-align: justify;&quot;&gt;int total sales&lt;/div&gt;&lt;div style=&quot;text-align: justify;&quot;&gt;int remaining balance&lt;/div&gt;&lt;div style=&quot;text-align: justify;&quot;&gt;int money left&lt;/div&gt;&lt;div style=&quot;text-align: justify;&quot;&gt;int coke amount&lt;/div&gt;&lt;div style=&quot;text-align: justify;&quot;&gt;int Green amount&lt;/div&gt;&lt;div style=&quot;text-align: justify;&quot;&gt;int americano amount&lt;/div&gt;&lt;div style=&quot;text-align: justify;&quot;&gt;int late amount&lt;/div&gt;&lt;div style=&quot;text-align: justify;&quot;&gt;int sunflower seed amount&lt;/div&gt;&lt;div style=&quot;text-align: justify;&quot;&gt;int peanut amount&lt;/div&gt;&lt;div style=&quot;text-align: justify;&quot;&gt;int fermented pork amount&lt;/div&gt;&lt;div style=&quot;text-align: justify;&quot;&gt;int 1000 bath&lt;/div&gt;&lt;div style=&quot;text-align: justify;&quot;&gt;int 500 bath&lt;/div&gt;&lt;div style=&quot;text-align: justify;&quot;&gt;int 100 bath&lt;/div&gt;&lt;div style=&quot;text-align: justify;&quot;&gt;int 50 bath&lt;/div&gt;&lt;div style=&quot;text-align: justify;&quot;&gt;int 20 bath&lt;/div&gt;&lt;div style=&quot;text-align: justify;&quot;&gt;int 10 bath&lt;/div&gt;&lt;div style=&quot;text-align: justify;&quot;&gt;int 5 bath&lt;/div&gt;&lt;div style=&quot;text-align: justify;&quot;&gt;int 2 bath&lt;/div&gt;&lt;div style=&quot;text-align: justify;&quot;&gt;int 1 bath&lt;/div&gt;&lt;/div&gt;" style="rounded=0;whiteSpace=wrap;html=1;" parent="WIyWlLk6GJQsqaUBKTNV-1" vertex="1">
          <mxGeometry x="450" y="90" width="319" height="320" as="geometry" />
        </mxCell>
        <mxCell id="gwc9V1HpgXU685YZ8IqW-188" style="edgeStyle=orthogonalEdgeStyle;rounded=0;orthogonalLoop=1;jettySize=auto;html=1;exitX=0.5;exitY=1;exitDx=0;exitDy=0;entryX=0.5;entryY=0;entryDx=0;entryDy=0;" parent="WIyWlLk6GJQsqaUBKTNV-1" source="gwc9V1HpgXU685YZ8IqW-3" target="gwc9V1HpgXU685YZ8IqW-6" edge="1">
          <mxGeometry relative="1" as="geometry" />
        </mxCell>
        <mxCell id="gwc9V1HpgXU685YZ8IqW-3" value="" style="ellipse;whiteSpace=wrap;html=1;aspect=fixed;" parent="WIyWlLk6GJQsqaUBKTNV-1" vertex="1">
          <mxGeometry x="596.43" y="530" width="23.5" height="23.5" as="geometry" />
        </mxCell>
        <mxCell id="gwc9V1HpgXU685YZ8IqW-189" style="edgeStyle=orthogonalEdgeStyle;rounded=0;orthogonalLoop=1;jettySize=auto;html=1;exitX=0.5;exitY=1;exitDx=0;exitDy=0;entryX=0.5;entryY=0;entryDx=0;entryDy=0;" parent="WIyWlLk6GJQsqaUBKTNV-1" source="gwc9V1HpgXU685YZ8IqW-6" target="gwc9V1HpgXU685YZ8IqW-111" edge="1">
          <mxGeometry relative="1" as="geometry" />
        </mxCell>
        <mxCell id="gwc9V1HpgXU685YZ8IqW-224" style="edgeStyle=orthogonalEdgeStyle;rounded=0;orthogonalLoop=1;jettySize=auto;html=1;exitX=1;exitY=0.5;exitDx=0;exitDy=0;entryX=0.5;entryY=0;entryDx=0;entryDy=0;" parent="WIyWlLk6GJQsqaUBKTNV-1" source="gwc9V1HpgXU685YZ8IqW-6" target="gwc9V1HpgXU685YZ8IqW-9" edge="1">
          <mxGeometry relative="1" as="geometry" />
        </mxCell>
        <mxCell id="gwc9V1HpgXU685YZ8IqW-6" value="&lt;font style=&quot;font-size: 12px;&quot;&gt;ลูกค้าเลือก&lt;/font&gt;&lt;div&gt;&lt;font style=&quot;font-size: 12px;&quot;&gt;ซื้อสินค้าหรือไม่&lt;/font&gt;&lt;/div&gt;" style="rhombus;whiteSpace=wrap;html=1;" parent="WIyWlLk6GJQsqaUBKTNV-1" vertex="1">
          <mxGeometry x="531.68" y="570" width="153" height="60" as="geometry" />
        </mxCell>
        <mxCell id="gwc9V1HpgXU685YZ8IqW-225" style="edgeStyle=orthogonalEdgeStyle;rounded=0;orthogonalLoop=1;jettySize=auto;html=1;exitX=1;exitY=0.5;exitDx=0;exitDy=0;entryX=0.5;entryY=0;entryDx=0;entryDy=0;" parent="WIyWlLk6GJQsqaUBKTNV-1" source="gwc9V1HpgXU685YZ8IqW-9" target="gwc9V1HpgXU685YZ8IqW-16" edge="1">
          <mxGeometry relative="1" as="geometry">
            <Array as="points">
              <mxPoint x="1042.07" y="655" />
            </Array>
          </mxGeometry>
        </mxCell>
        <mxCell id="gwc9V1HpgXU685YZ8IqW-230" style="edgeStyle=orthogonalEdgeStyle;rounded=0;orthogonalLoop=1;jettySize=auto;html=1;exitX=0.5;exitY=1;exitDx=0;exitDy=0;entryX=0.5;entryY=0;entryDx=0;entryDy=0;" parent="WIyWlLk6GJQsqaUBKTNV-1" source="gwc9V1HpgXU685YZ8IqW-9" target="gwc9V1HpgXU685YZ8IqW-13" edge="1">
          <mxGeometry relative="1" as="geometry" />
        </mxCell>
        <mxCell id="gwc9V1HpgXU685YZ8IqW-9" value="&lt;span style=&quot;font-family: Sarabun; text-align: left; text-wrap-mode: nowrap;&quot;&gt;&lt;font style=&quot;font-size: 10px;&quot;&gt;เลือกโค้ก กระป๋อง&lt;/font&gt;&lt;/span&gt;&lt;div&gt;&lt;span style=&quot;font-family: Sarabun; text-align: left; text-wrap-mode: nowrap;&quot;&gt;&lt;font style=&quot;font-size: 10px;&quot;&gt;ละ 10 บาท&lt;/font&gt;&lt;/span&gt;&lt;/div&gt;" style="rhombus;whiteSpace=wrap;html=1;" parent="WIyWlLk6GJQsqaUBKTNV-1" vertex="1">
          <mxGeometry x="756.0899999999999" y="620" width="140" height="70" as="geometry" />
        </mxCell>
        <mxCell id="gwc9V1HpgXU685YZ8IqW-187" style="edgeStyle=orthogonalEdgeStyle;rounded=0;orthogonalLoop=1;jettySize=auto;html=1;exitX=0.5;exitY=1;exitDx=0;exitDy=0;entryX=0.5;entryY=0;entryDx=0;entryDy=0;" parent="WIyWlLk6GJQsqaUBKTNV-1" source="gwc9V1HpgXU685YZ8IqW-11" target="gwc9V1HpgXU685YZ8IqW-3" edge="1">
          <mxGeometry relative="1" as="geometry" />
        </mxCell>
        <mxCell id="gwc9V1HpgXU685YZ8IqW-11" value="&lt;span style=&quot;font-size: 10px;&quot;&gt;printf รายการสินค้า&lt;/span&gt;" style="shape=parallelogram;perimeter=parallelogramPerimeter;whiteSpace=wrap;html=1;fixedSize=1;" parent="WIyWlLk6GJQsqaUBKTNV-1" vertex="1">
          <mxGeometry x="550.5899999999999" y="480" width="120" height="30" as="geometry" />
        </mxCell>
        <mxCell id="gwc9V1HpgXU685YZ8IqW-231" style="edgeStyle=orthogonalEdgeStyle;rounded=0;orthogonalLoop=1;jettySize=auto;html=1;exitX=0.5;exitY=1;exitDx=0;exitDy=0;entryX=0.5;entryY=0;entryDx=0;entryDy=0;" parent="WIyWlLk6GJQsqaUBKTNV-1" source="gwc9V1HpgXU685YZ8IqW-13" target="gwc9V1HpgXU685YZ8IqW-114" edge="1">
          <mxGeometry relative="1" as="geometry" />
        </mxCell>
        <mxCell id="gwc9V1HpgXU685YZ8IqW-13" value="total price = total price&amp;nbsp;+ 10" style="rounded=0;whiteSpace=wrap;html=1;" parent="WIyWlLk6GJQsqaUBKTNV-1" vertex="1">
          <mxGeometry x="747.8499999999999" y="710" width="156.48" height="40" as="geometry" />
        </mxCell>
        <mxCell id="gwc9V1HpgXU685YZ8IqW-226" style="edgeStyle=orthogonalEdgeStyle;rounded=0;orthogonalLoop=1;jettySize=auto;html=1;exitX=1;exitY=0.5;exitDx=0;exitDy=0;entryX=0.5;entryY=0;entryDx=0;entryDy=0;" parent="WIyWlLk6GJQsqaUBKTNV-1" source="gwc9V1HpgXU685YZ8IqW-16" target="gwc9V1HpgXU685YZ8IqW-98" edge="1">
          <mxGeometry relative="1" as="geometry">
            <Array as="points">
              <mxPoint x="1246.07" y="705" />
            </Array>
          </mxGeometry>
        </mxCell>
        <mxCell id="gwc9V1HpgXU685YZ8IqW-232" style="edgeStyle=orthogonalEdgeStyle;rounded=0;orthogonalLoop=1;jettySize=auto;html=1;exitX=0.5;exitY=1;exitDx=0;exitDy=0;entryX=0.5;entryY=0;entryDx=0;entryDy=0;" parent="WIyWlLk6GJQsqaUBKTNV-1" source="gwc9V1HpgXU685YZ8IqW-16" target="gwc9V1HpgXU685YZ8IqW-96" edge="1">
          <mxGeometry relative="1" as="geometry" />
        </mxCell>
        <mxCell id="gwc9V1HpgXU685YZ8IqW-16" value="&lt;span style=&quot;font-family: Sarabun; text-align: left; text-wrap-mode: nowrap;&quot;&gt;&lt;font style=&quot;font-size: 10px;&quot;&gt;เลือกน้ำเขียว&amp;nbsp;&lt;/font&gt;&lt;/span&gt;&lt;div&gt;&lt;span style=&quot;font-family: Sarabun; text-align: left; text-wrap-mode: nowrap;&quot;&gt;&lt;font style=&quot;font-size: 10px;&quot;&gt;กระป๋องละ&amp;nbsp;&lt;/font&gt;&lt;/span&gt;&lt;/div&gt;&lt;div&gt;&lt;span style=&quot;font-family: Sarabun; text-align: left; text-wrap-mode: nowrap;&quot;&gt;&lt;font style=&quot;font-size: 10px;&quot;&gt;12 บาท&lt;/font&gt;&lt;/span&gt;&lt;/div&gt;" style="rhombus;whiteSpace=wrap;html=1;" parent="WIyWlLk6GJQsqaUBKTNV-1" vertex="1">
          <mxGeometry x="972.5899999999999" y="670" width="140" height="70" as="geometry" />
        </mxCell>
        <mxCell id="gwc9V1HpgXU685YZ8IqW-186" style="edgeStyle=orthogonalEdgeStyle;rounded=0;orthogonalLoop=1;jettySize=auto;html=1;exitX=0.5;exitY=1;exitDx=0;exitDy=0;entryX=0.5;entryY=0;entryDx=0;entryDy=0;" parent="WIyWlLk6GJQsqaUBKTNV-1" source="gwc9V1HpgXU685YZ8IqW-80" target="gwc9V1HpgXU685YZ8IqW-11" edge="1">
          <mxGeometry relative="1" as="geometry" />
        </mxCell>
        <mxCell id="gwc9V1HpgXU685YZ8IqW-80" value="รับค่า&amp;nbsp;&lt;span style=&quot;text-align: justify;&quot;&gt;remaining balance&lt;/span&gt;" style="shape=parallelogram;perimeter=parallelogramPerimeter;whiteSpace=wrap;html=1;fixedSize=1;" parent="WIyWlLk6GJQsqaUBKTNV-1" vertex="1">
          <mxGeometry x="531.6800000000001" y="430" width="158.48" height="30" as="geometry" />
        </mxCell>
        <mxCell id="gwc9V1HpgXU685YZ8IqW-233" style="edgeStyle=orthogonalEdgeStyle;rounded=0;orthogonalLoop=1;jettySize=auto;html=1;exitX=0.5;exitY=1;exitDx=0;exitDy=0;entryX=0.5;entryY=0;entryDx=0;entryDy=0;" parent="WIyWlLk6GJQsqaUBKTNV-1" source="gwc9V1HpgXU685YZ8IqW-96" target="gwc9V1HpgXU685YZ8IqW-116" edge="1">
          <mxGeometry relative="1" as="geometry" />
        </mxCell>
        <mxCell id="gwc9V1HpgXU685YZ8IqW-96" value="total price&amp;nbsp;= total price&amp;nbsp;+ 12" style="rounded=0;whiteSpace=wrap;html=1;" parent="WIyWlLk6GJQsqaUBKTNV-1" vertex="1">
          <mxGeometry x="962.5999999999999" y="760" width="159.98" height="40" as="geometry" />
        </mxCell>
        <mxCell id="gwc9V1HpgXU685YZ8IqW-227" style="edgeStyle=orthogonalEdgeStyle;rounded=0;orthogonalLoop=1;jettySize=auto;html=1;exitX=1;exitY=0.5;exitDx=0;exitDy=0;entryX=0.5;entryY=0;entryDx=0;entryDy=0;" parent="WIyWlLk6GJQsqaUBKTNV-1" source="gwc9V1HpgXU685YZ8IqW-98" target="gwc9V1HpgXU685YZ8IqW-100" edge="1">
          <mxGeometry relative="1" as="geometry">
            <Array as="points">
              <mxPoint x="1480.07" y="755" />
            </Array>
          </mxGeometry>
        </mxCell>
        <mxCell id="gwc9V1HpgXU685YZ8IqW-234" style="edgeStyle=orthogonalEdgeStyle;rounded=0;orthogonalLoop=1;jettySize=auto;html=1;exitX=0.5;exitY=1;exitDx=0;exitDy=0;entryX=0.5;entryY=0;entryDx=0;entryDy=0;" parent="WIyWlLk6GJQsqaUBKTNV-1" source="gwc9V1HpgXU685YZ8IqW-98" target="gwc9V1HpgXU685YZ8IqW-99" edge="1">
          <mxGeometry relative="1" as="geometry" />
        </mxCell>
        <mxCell id="gwc9V1HpgXU685YZ8IqW-98" value="&lt;span style=&quot;font-family: Sarabun; text-align: left; text-wrap-mode: nowrap;&quot;&gt;&lt;font style=&quot;font-size: 10px;&quot;&gt;อเมริกาโน่ 30 บาท&lt;/font&gt;&lt;/span&gt;" style="rhombus;whiteSpace=wrap;html=1;" parent="WIyWlLk6GJQsqaUBKTNV-1" vertex="1">
          <mxGeometry x="1175.59" y="720" width="140" height="70" as="geometry" />
        </mxCell>
        <mxCell id="gwc9V1HpgXU685YZ8IqW-235" style="edgeStyle=orthogonalEdgeStyle;rounded=0;orthogonalLoop=1;jettySize=auto;html=1;exitX=0.5;exitY=1;exitDx=0;exitDy=0;entryX=0.5;entryY=0;entryDx=0;entryDy=0;" parent="WIyWlLk6GJQsqaUBKTNV-1" source="gwc9V1HpgXU685YZ8IqW-99" target="gwc9V1HpgXU685YZ8IqW-117" edge="1">
          <mxGeometry relative="1" as="geometry" />
        </mxCell>
        <mxCell id="gwc9V1HpgXU685YZ8IqW-99" value="total price&amp;nbsp;= total price&amp;nbsp;+ 30" style="rounded=0;whiteSpace=wrap;html=1;" parent="WIyWlLk6GJQsqaUBKTNV-1" vertex="1">
          <mxGeometry x="1172.1" y="810" width="146.98" height="40" as="geometry" />
        </mxCell>
        <mxCell id="gwc9V1HpgXU685YZ8IqW-228" style="edgeStyle=orthogonalEdgeStyle;rounded=0;orthogonalLoop=1;jettySize=auto;html=1;exitX=1;exitY=0.5;exitDx=0;exitDy=0;entryX=0.5;entryY=0;entryDx=0;entryDy=0;" parent="WIyWlLk6GJQsqaUBKTNV-1" source="gwc9V1HpgXU685YZ8IqW-100" target="gwc9V1HpgXU685YZ8IqW-102" edge="1">
          <mxGeometry relative="1" as="geometry">
            <Array as="points">
              <mxPoint x="1709.07" y="805" />
            </Array>
          </mxGeometry>
        </mxCell>
        <mxCell id="gwc9V1HpgXU685YZ8IqW-236" style="edgeStyle=orthogonalEdgeStyle;rounded=0;orthogonalLoop=1;jettySize=auto;html=1;exitX=0.5;exitY=1;exitDx=0;exitDy=0;entryX=0.5;entryY=0;entryDx=0;entryDy=0;" parent="WIyWlLk6GJQsqaUBKTNV-1" source="gwc9V1HpgXU685YZ8IqW-100" target="gwc9V1HpgXU685YZ8IqW-101" edge="1">
          <mxGeometry relative="1" as="geometry" />
        </mxCell>
        <mxCell id="gwc9V1HpgXU685YZ8IqW-100" value="&lt;span style=&quot;font-family: Sarabun; text-align: left; text-wrap-mode: nowrap;&quot;&gt;&lt;font style=&quot;font-size: 10px;&quot;&gt;ลาเต้ หวานเจี๊ยบ&amp;nbsp;&lt;/font&gt;&lt;/span&gt;&lt;div&gt;&lt;span style=&quot;font-family: Sarabun; text-align: left; text-wrap-mode: nowrap;&quot;&gt;&lt;font style=&quot;font-size: 10px;&quot;&gt;35 บาท&lt;/font&gt;&lt;/span&gt;&lt;/div&gt;" style="rhombus;whiteSpace=wrap;html=1;" parent="WIyWlLk6GJQsqaUBKTNV-1" vertex="1">
          <mxGeometry x="1409.59" y="770" width="140" height="70" as="geometry" />
        </mxCell>
        <mxCell id="gwc9V1HpgXU685YZ8IqW-237" value="" style="edgeStyle=orthogonalEdgeStyle;rounded=0;orthogonalLoop=1;jettySize=auto;html=1;" parent="WIyWlLk6GJQsqaUBKTNV-1" source="gwc9V1HpgXU685YZ8IqW-101" target="gwc9V1HpgXU685YZ8IqW-118" edge="1">
          <mxGeometry relative="1" as="geometry" />
        </mxCell>
        <mxCell id="gwc9V1HpgXU685YZ8IqW-101" value="total price&amp;nbsp;= total price&amp;nbsp;+ 35" style="rounded=0;whiteSpace=wrap;html=1;" parent="WIyWlLk6GJQsqaUBKTNV-1" vertex="1">
          <mxGeometry x="1403.1" y="860" width="152.98" height="40" as="geometry" />
        </mxCell>
        <mxCell id="gwc9V1HpgXU685YZ8IqW-229" style="edgeStyle=orthogonalEdgeStyle;rounded=0;orthogonalLoop=1;jettySize=auto;html=1;exitX=1;exitY=0.5;exitDx=0;exitDy=0;entryX=0.5;entryY=0;entryDx=0;entryDy=0;" parent="WIyWlLk6GJQsqaUBKTNV-1" source="gwc9V1HpgXU685YZ8IqW-102" target="gwc9V1HpgXU685YZ8IqW-104" edge="1">
          <mxGeometry relative="1" as="geometry">
            <Array as="points">
              <mxPoint x="1969.07" y="855" />
            </Array>
          </mxGeometry>
        </mxCell>
        <mxCell id="gwc9V1HpgXU685YZ8IqW-238" style="edgeStyle=orthogonalEdgeStyle;rounded=0;orthogonalLoop=1;jettySize=auto;html=1;exitX=0.5;exitY=1;exitDx=0;exitDy=0;entryX=0.5;entryY=0;entryDx=0;entryDy=0;" parent="WIyWlLk6GJQsqaUBKTNV-1" source="gwc9V1HpgXU685YZ8IqW-102" target="gwc9V1HpgXU685YZ8IqW-103" edge="1">
          <mxGeometry relative="1" as="geometry" />
        </mxCell>
        <mxCell id="gwc9V1HpgXU685YZ8IqW-102" value="&lt;span style=&quot;font-family: Sarabun; text-align: left; text-wrap-mode: nowrap;&quot;&gt;&lt;font style=&quot;font-size: 10px;&quot;&gt;เมล็ดทานตะวัน&amp;nbsp;&lt;/font&gt;&lt;/span&gt;&lt;div&gt;&lt;span style=&quot;font-family: Sarabun; text-align: left; text-wrap-mode: nowrap;&quot;&gt;&lt;font style=&quot;font-size: 10px;&quot;&gt;13 บาท&lt;/font&gt;&lt;/span&gt;&lt;/div&gt;" style="rhombus;whiteSpace=wrap;html=1;" parent="WIyWlLk6GJQsqaUBKTNV-1" vertex="1">
          <mxGeometry x="1639.07" y="820" width="140" height="70" as="geometry" />
        </mxCell>
        <mxCell id="gwc9V1HpgXU685YZ8IqW-239" style="edgeStyle=orthogonalEdgeStyle;rounded=0;orthogonalLoop=1;jettySize=auto;html=1;exitX=0.5;exitY=1;exitDx=0;exitDy=0;entryX=0.5;entryY=0;entryDx=0;entryDy=0;" parent="WIyWlLk6GJQsqaUBKTNV-1" source="gwc9V1HpgXU685YZ8IqW-103" target="gwc9V1HpgXU685YZ8IqW-119" edge="1">
          <mxGeometry relative="1" as="geometry" />
        </mxCell>
        <mxCell id="gwc9V1HpgXU685YZ8IqW-103" value="total price&amp;nbsp;= total price&amp;nbsp;+ 13" style="rounded=0;whiteSpace=wrap;html=1;" parent="WIyWlLk6GJQsqaUBKTNV-1" vertex="1">
          <mxGeometry x="1632.32" y="910" width="153.49" height="40" as="geometry" />
        </mxCell>
        <mxCell id="gwc9V1HpgXU685YZ8IqW-240" style="edgeStyle=orthogonalEdgeStyle;rounded=0;orthogonalLoop=1;jettySize=auto;html=1;exitX=0.5;exitY=1;exitDx=0;exitDy=0;entryX=0.5;entryY=0;entryDx=0;entryDy=0;" parent="WIyWlLk6GJQsqaUBKTNV-1" source="gwc9V1HpgXU685YZ8IqW-104" target="gwc9V1HpgXU685YZ8IqW-105" edge="1">
          <mxGeometry relative="1" as="geometry" />
        </mxCell>
        <mxCell id="gwc9V1HpgXU685YZ8IqW-242" style="edgeStyle=orthogonalEdgeStyle;rounded=0;orthogonalLoop=1;jettySize=auto;html=1;exitX=1;exitY=0.5;exitDx=0;exitDy=0;entryX=0.5;entryY=0;entryDx=0;entryDy=0;" parent="WIyWlLk6GJQsqaUBKTNV-1" source="gwc9V1HpgXU685YZ8IqW-104" target="gwc9V1HpgXU685YZ8IqW-106" edge="1">
          <mxGeometry relative="1" as="geometry">
            <Array as="points">
              <mxPoint x="2179.07" y="905" />
            </Array>
          </mxGeometry>
        </mxCell>
        <mxCell id="gwc9V1HpgXU685YZ8IqW-104" value="&lt;span style=&quot;font-family: Sarabun; text-align: left; text-wrap-mode: nowrap;&quot;&gt;&lt;font style=&quot;font-size: 10px;&quot;&gt;ถั่วแปบ 20 บาท&lt;/font&gt;&lt;/span&gt;" style="rhombus;whiteSpace=wrap;html=1;" parent="WIyWlLk6GJQsqaUBKTNV-1" vertex="1">
          <mxGeometry x="1899.07" y="870" width="140" height="70" as="geometry" />
        </mxCell>
        <mxCell id="gwc9V1HpgXU685YZ8IqW-241" style="edgeStyle=orthogonalEdgeStyle;rounded=0;orthogonalLoop=1;jettySize=auto;html=1;exitX=0.5;exitY=1;exitDx=0;exitDy=0;entryX=0.5;entryY=0;entryDx=0;entryDy=0;" parent="WIyWlLk6GJQsqaUBKTNV-1" source="gwc9V1HpgXU685YZ8IqW-105" target="gwc9V1HpgXU685YZ8IqW-120" edge="1">
          <mxGeometry relative="1" as="geometry" />
        </mxCell>
        <mxCell id="gwc9V1HpgXU685YZ8IqW-105" value="total price&amp;nbsp;= total price&amp;nbsp;+ 20" style="rounded=0;whiteSpace=wrap;html=1;" parent="WIyWlLk6GJQsqaUBKTNV-1" vertex="1">
          <mxGeometry x="1892.32" y="960" width="153.49" height="40" as="geometry" />
        </mxCell>
        <mxCell id="gwc9V1HpgXU685YZ8IqW-243" style="edgeStyle=orthogonalEdgeStyle;rounded=0;orthogonalLoop=1;jettySize=auto;html=1;exitX=0.5;exitY=1;exitDx=0;exitDy=0;entryX=0.5;entryY=0;entryDx=0;entryDy=0;" parent="WIyWlLk6GJQsqaUBKTNV-1" source="gwc9V1HpgXU685YZ8IqW-106" target="gwc9V1HpgXU685YZ8IqW-109" edge="1">
          <mxGeometry relative="1" as="geometry" />
        </mxCell>
        <mxCell id="gwc9V1HpgXU685YZ8IqW-252" style="edgeStyle=orthogonalEdgeStyle;rounded=0;orthogonalLoop=1;jettySize=auto;html=1;exitX=1;exitY=0.5;exitDx=0;exitDy=0;entryX=1;entryY=0.5;entryDx=0;entryDy=0;" parent="WIyWlLk6GJQsqaUBKTNV-1" source="gwc9V1HpgXU685YZ8IqW-106" target="gwc9V1HpgXU685YZ8IqW-111" edge="1">
          <mxGeometry relative="1" as="geometry">
            <Array as="points">
              <mxPoint x="2369.07" y="955" />
              <mxPoint x="2369.07" y="1130" />
              <mxPoint x="709.0699999999999" y="1130" />
              <mxPoint x="709.0699999999999" y="658" />
            </Array>
          </mxGeometry>
        </mxCell>
        <mxCell id="gwc9V1HpgXU685YZ8IqW-106" value="&lt;span style=&quot;font-family: Sarabun; text-align: left; text-wrap-mode: nowrap;&quot;&gt;&lt;font style=&quot;font-size: 10px;&quot;&gt;จิ้นส้มหมก 15 บาท&lt;/font&gt;&lt;/span&gt;" style="rhombus;whiteSpace=wrap;html=1;" parent="WIyWlLk6GJQsqaUBKTNV-1" vertex="1">
          <mxGeometry x="2109.0699999999997" y="920" width="140" height="70" as="geometry" />
        </mxCell>
        <mxCell id="gwc9V1HpgXU685YZ8IqW-244" style="edgeStyle=orthogonalEdgeStyle;rounded=0;orthogonalLoop=1;jettySize=auto;html=1;exitX=0.5;exitY=1;exitDx=0;exitDy=0;entryX=0.5;entryY=0;entryDx=0;entryDy=0;" parent="WIyWlLk6GJQsqaUBKTNV-1" source="gwc9V1HpgXU685YZ8IqW-109" target="gwc9V1HpgXU685YZ8IqW-121" edge="1">
          <mxGeometry relative="1" as="geometry" />
        </mxCell>
        <mxCell id="gwc9V1HpgXU685YZ8IqW-109" value="total price&amp;nbsp;= total price&amp;nbsp;+ 15" style="rounded=0;whiteSpace=wrap;html=1;" parent="WIyWlLk6GJQsqaUBKTNV-1" vertex="1">
          <mxGeometry x="2102.3199999999997" y="1010" width="153.49" height="40" as="geometry" />
        </mxCell>
        <mxCell id="gwc9V1HpgXU685YZ8IqW-190" style="edgeStyle=orthogonalEdgeStyle;rounded=0;orthogonalLoop=1;jettySize=auto;html=1;exitX=0.5;exitY=1;exitDx=0;exitDy=0;entryX=0.5;entryY=0;entryDx=0;entryDy=0;" parent="WIyWlLk6GJQsqaUBKTNV-1" source="gwc9V1HpgXU685YZ8IqW-111" target="gwc9V1HpgXU685YZ8IqW-112" edge="1">
          <mxGeometry relative="1" as="geometry" />
        </mxCell>
        <mxCell id="gwc9V1HpgXU685YZ8IqW-111" value="" style="ellipse;whiteSpace=wrap;html=1;aspect=fixed;" parent="WIyWlLk6GJQsqaUBKTNV-1" vertex="1">
          <mxGeometry x="596.99" y="646.5" width="23.5" height="23.5" as="geometry" />
        </mxCell>
        <mxCell id="gwc9V1HpgXU685YZ8IqW-191" style="edgeStyle=orthogonalEdgeStyle;rounded=0;orthogonalLoop=1;jettySize=auto;html=1;exitX=0.5;exitY=1;exitDx=0;exitDy=0;entryX=0.5;entryY=0;entryDx=0;entryDy=0;" parent="WIyWlLk6GJQsqaUBKTNV-1" source="gwc9V1HpgXU685YZ8IqW-112" target="gwc9V1HpgXU685YZ8IqW-113" edge="1">
          <mxGeometry relative="1" as="geometry" />
        </mxCell>
        <mxCell id="gwc9V1HpgXU685YZ8IqW-112" value="&lt;span style=&quot;font-size: 10px;&quot;&gt;printf รายการสินค้าที่เลือก&lt;/span&gt;" style="shape=parallelogram;perimeter=parallelogramPerimeter;whiteSpace=wrap;html=1;fixedSize=1;" parent="WIyWlLk6GJQsqaUBKTNV-1" vertex="1">
          <mxGeometry x="539.8299999999999" y="690" width="141.52" height="30" as="geometry" />
        </mxCell>
        <mxCell id="gwc9V1HpgXU685YZ8IqW-192" style="edgeStyle=orthogonalEdgeStyle;rounded=0;orthogonalLoop=1;jettySize=auto;html=1;exitX=0.5;exitY=1;exitDx=0;exitDy=0;entryX=0.5;entryY=0;entryDx=0;entryDy=0;" parent="WIyWlLk6GJQsqaUBKTNV-1" source="gwc9V1HpgXU685YZ8IqW-113" target="gwc9V1HpgXU685YZ8IqW-122" edge="1">
          <mxGeometry relative="1" as="geometry" />
        </mxCell>
        <mxCell id="yZe0aA9HB4QeWu0gWXZc-0" style="edgeStyle=orthogonalEdgeStyle;rounded=0;orthogonalLoop=1;jettySize=auto;html=1;exitX=0;exitY=0.5;exitDx=0;exitDy=0;entryX=0;entryY=0.5;entryDx=0;entryDy=0;" parent="WIyWlLk6GJQsqaUBKTNV-1" source="gwc9V1HpgXU685YZ8IqW-113" target="gwc9V1HpgXU685YZ8IqW-3" edge="1">
          <mxGeometry relative="1" as="geometry" />
        </mxCell>
        <mxCell id="gwc9V1HpgXU685YZ8IqW-113" value="&lt;font style=&quot;font-size: 12px;&quot;&gt;ลูกค้าเลือก&lt;/font&gt;&lt;div&gt;&lt;font style=&quot;font-size: 12px;&quot;&gt;ซื้อสินค้าเพิ่มหรือไม่&lt;/font&gt;&lt;/div&gt;" style="rhombus;whiteSpace=wrap;html=1;" parent="WIyWlLk6GJQsqaUBKTNV-1" vertex="1">
          <mxGeometry x="529.5" y="740" width="160" height="70" as="geometry" />
        </mxCell>
        <mxCell id="gwc9V1HpgXU685YZ8IqW-245" style="edgeStyle=orthogonalEdgeStyle;rounded=0;orthogonalLoop=1;jettySize=auto;html=1;exitX=0;exitY=0.5;exitDx=0;exitDy=0;entryX=1;entryY=0.5;entryDx=0;entryDy=0;" parent="WIyWlLk6GJQsqaUBKTNV-1" source="gwc9V1HpgXU685YZ8IqW-114" target="gwc9V1HpgXU685YZ8IqW-111" edge="1">
          <mxGeometry relative="1" as="geometry">
            <Array as="points">
              <mxPoint x="709.0699999999999" y="790" />
              <mxPoint x="709.0699999999999" y="658" />
            </Array>
          </mxGeometry>
        </mxCell>
        <mxCell id="gwc9V1HpgXU685YZ8IqW-114" value="coke amount&amp;nbsp;= coke amount + 1" style="rounded=0;whiteSpace=wrap;html=1;" parent="WIyWlLk6GJQsqaUBKTNV-1" vertex="1">
          <mxGeometry x="737.8499999999999" y="770" width="176.48" height="40" as="geometry" />
        </mxCell>
        <mxCell id="gwc9V1HpgXU685YZ8IqW-246" style="edgeStyle=orthogonalEdgeStyle;rounded=0;orthogonalLoop=1;jettySize=auto;html=1;exitX=0;exitY=0.5;exitDx=0;exitDy=0;entryX=1;entryY=0.5;entryDx=0;entryDy=0;" parent="WIyWlLk6GJQsqaUBKTNV-1" source="gwc9V1HpgXU685YZ8IqW-116" target="gwc9V1HpgXU685YZ8IqW-111" edge="1">
          <mxGeometry relative="1" as="geometry">
            <Array as="points">
              <mxPoint x="709.0699999999999" y="840" />
              <mxPoint x="709.0699999999999" y="658" />
            </Array>
          </mxGeometry>
        </mxCell>
        <mxCell id="gwc9V1HpgXU685YZ8IqW-116" value="Green amount&amp;nbsp;= Green amount + 1" style="rounded=0;whiteSpace=wrap;html=1;" parent="WIyWlLk6GJQsqaUBKTNV-1" vertex="1">
          <mxGeometry x="945.23" y="820" width="194.72" height="40" as="geometry" />
        </mxCell>
        <mxCell id="gwc9V1HpgXU685YZ8IqW-247" style="edgeStyle=orthogonalEdgeStyle;rounded=0;orthogonalLoop=1;jettySize=auto;html=1;exitX=0;exitY=0.5;exitDx=0;exitDy=0;entryX=1;entryY=0.5;entryDx=0;entryDy=0;" parent="WIyWlLk6GJQsqaUBKTNV-1" source="gwc9V1HpgXU685YZ8IqW-117" target="gwc9V1HpgXU685YZ8IqW-111" edge="1">
          <mxGeometry relative="1" as="geometry">
            <Array as="points">
              <mxPoint x="709.0699999999999" y="890" />
              <mxPoint x="709.0699999999999" y="658" />
            </Array>
          </mxGeometry>
        </mxCell>
        <mxCell id="gwc9V1HpgXU685YZ8IqW-117" value="americano amount&amp;nbsp;= americano amount + 1" style="rounded=0;whiteSpace=wrap;html=1;" parent="WIyWlLk6GJQsqaUBKTNV-1" vertex="1">
          <mxGeometry x="1125.17" y="870" width="240.84" height="40" as="geometry" />
        </mxCell>
        <mxCell id="gwc9V1HpgXU685YZ8IqW-248" style="edgeStyle=orthogonalEdgeStyle;rounded=0;orthogonalLoop=1;jettySize=auto;html=1;exitX=0;exitY=0.5;exitDx=0;exitDy=0;entryX=1;entryY=0.5;entryDx=0;entryDy=0;" parent="WIyWlLk6GJQsqaUBKTNV-1" source="gwc9V1HpgXU685YZ8IqW-118" target="gwc9V1HpgXU685YZ8IqW-111" edge="1">
          <mxGeometry relative="1" as="geometry">
            <Array as="points">
              <mxPoint x="709.0699999999999" y="940" />
              <mxPoint x="709.0699999999999" y="658" />
            </Array>
          </mxGeometry>
        </mxCell>
        <mxCell id="gwc9V1HpgXU685YZ8IqW-118" value="late amount&amp;nbsp;= late amount + 1" style="rounded=0;whiteSpace=wrap;html=1;" parent="WIyWlLk6GJQsqaUBKTNV-1" vertex="1">
          <mxGeometry x="1394.64" y="920" width="169.9" height="40" as="geometry" />
        </mxCell>
        <mxCell id="gwc9V1HpgXU685YZ8IqW-249" style="edgeStyle=orthogonalEdgeStyle;rounded=0;orthogonalLoop=1;jettySize=auto;html=1;exitX=0;exitY=0.5;exitDx=0;exitDy=0;entryX=1;entryY=0.5;entryDx=0;entryDy=0;" parent="WIyWlLk6GJQsqaUBKTNV-1" source="gwc9V1HpgXU685YZ8IqW-119" target="gwc9V1HpgXU685YZ8IqW-111" edge="1">
          <mxGeometry relative="1" as="geometry">
            <Array as="points">
              <mxPoint x="709.0699999999999" y="990" />
              <mxPoint x="709.0699999999999" y="658" />
            </Array>
          </mxGeometry>
        </mxCell>
        <mxCell id="gwc9V1HpgXU685YZ8IqW-119" value="sunflower seed amount&amp;nbsp;= sunflower seed amount + 1" style="rounded=0;whiteSpace=wrap;html=1;" parent="WIyWlLk6GJQsqaUBKTNV-1" vertex="1">
          <mxGeometry x="1566.6" y="970" width="284.95" height="40" as="geometry" />
        </mxCell>
        <mxCell id="gwc9V1HpgXU685YZ8IqW-250" style="edgeStyle=orthogonalEdgeStyle;rounded=0;orthogonalLoop=1;jettySize=auto;html=1;exitX=0;exitY=0.5;exitDx=0;exitDy=0;entryX=1;entryY=0.5;entryDx=0;entryDy=0;" parent="WIyWlLk6GJQsqaUBKTNV-1" source="gwc9V1HpgXU685YZ8IqW-120" target="gwc9V1HpgXU685YZ8IqW-111" edge="1">
          <mxGeometry relative="1" as="geometry">
            <Array as="points">
              <mxPoint x="709.0699999999999" y="1040" />
              <mxPoint x="709.0699999999999" y="658" />
            </Array>
          </mxGeometry>
        </mxCell>
        <mxCell id="gwc9V1HpgXU685YZ8IqW-120" value="peanut amount&amp;nbsp;= peanut amount + 1" style="rounded=0;whiteSpace=wrap;html=1;" parent="WIyWlLk6GJQsqaUBKTNV-1" vertex="1">
          <mxGeometry x="1867.83" y="1020" width="202.48" height="40" as="geometry" />
        </mxCell>
        <mxCell id="gwc9V1HpgXU685YZ8IqW-251" style="edgeStyle=orthogonalEdgeStyle;rounded=0;orthogonalLoop=1;jettySize=auto;html=1;exitX=0;exitY=0.5;exitDx=0;exitDy=0;entryX=1;entryY=0.5;entryDx=0;entryDy=0;" parent="WIyWlLk6GJQsqaUBKTNV-1" source="gwc9V1HpgXU685YZ8IqW-121" target="gwc9V1HpgXU685YZ8IqW-111" edge="1">
          <mxGeometry relative="1" as="geometry">
            <Array as="points">
              <mxPoint x="709.0699999999999" y="1090" />
              <mxPoint x="709.0699999999999" y="658" />
            </Array>
          </mxGeometry>
        </mxCell>
        <mxCell id="gwc9V1HpgXU685YZ8IqW-121" value="fermented pork amount&amp;nbsp;= fermented pork amount + 1" style="rounded=0;whiteSpace=wrap;html=1;" parent="WIyWlLk6GJQsqaUBKTNV-1" vertex="1">
          <mxGeometry x="2033.4499999999998" y="1070" width="291.24" height="40" as="geometry" />
        </mxCell>
        <mxCell id="gwc9V1HpgXU685YZ8IqW-194" style="edgeStyle=orthogonalEdgeStyle;rounded=0;orthogonalLoop=1;jettySize=auto;html=1;exitX=0.5;exitY=1;exitDx=0;exitDy=0;entryX=0.5;entryY=0;entryDx=0;entryDy=0;" parent="WIyWlLk6GJQsqaUBKTNV-1" source="gwc9V1HpgXU685YZ8IqW-122" target="gwc9V1HpgXU685YZ8IqW-123" edge="1">
          <mxGeometry relative="1" as="geometry" />
        </mxCell>
        <mxCell id="gwc9V1HpgXU685YZ8IqW-122" value="printf จำนวนสินค้าที่เลือก&lt;div&gt;และ&amp;nbsp;&lt;span style=&quot;background-color: transparent; color: light-dark(rgb(0, 0, 0), rgb(255, 255, 255));&quot;&gt;total price&lt;/span&gt;&lt;/div&gt;" style="shape=parallelogram;perimeter=parallelogramPerimeter;whiteSpace=wrap;html=1;fixedSize=1;" parent="WIyWlLk6GJQsqaUBKTNV-1" vertex="1">
          <mxGeometry x="530.8399999999999" y="830" width="152.5" height="40" as="geometry" />
        </mxCell>
        <mxCell id="gwc9V1HpgXU685YZ8IqW-195" style="edgeStyle=orthogonalEdgeStyle;rounded=0;orthogonalLoop=1;jettySize=auto;html=1;exitX=0.5;exitY=1;exitDx=0;exitDy=0;entryX=0.5;entryY=0;entryDx=0;entryDy=0;" parent="WIyWlLk6GJQsqaUBKTNV-1" source="gwc9V1HpgXU685YZ8IqW-123" target="gwc9V1HpgXU685YZ8IqW-124" edge="1">
          <mxGeometry relative="1" as="geometry" />
        </mxCell>
        <mxCell id="gwc9V1HpgXU685YZ8IqW-123" value="" style="ellipse;whiteSpace=wrap;html=1;aspect=fixed;" parent="WIyWlLk6GJQsqaUBKTNV-1" vertex="1">
          <mxGeometry x="599.17" y="890" width="23.5" height="23.5" as="geometry" />
        </mxCell>
        <mxCell id="gwc9V1HpgXU685YZ8IqW-196" style="edgeStyle=orthogonalEdgeStyle;rounded=0;orthogonalLoop=1;jettySize=auto;html=1;exitX=0.5;exitY=1;exitDx=0;exitDy=0;entryX=0.5;entryY=0;entryDx=0;entryDy=0;" parent="WIyWlLk6GJQsqaUBKTNV-1" source="gwc9V1HpgXU685YZ8IqW-124" target="gwc9V1HpgXU685YZ8IqW-144" edge="1">
          <mxGeometry relative="1" as="geometry" />
        </mxCell>
        <mxCell id="gwc9V1HpgXU685YZ8IqW-124" value="รับค่า pay" style="shape=parallelogram;perimeter=parallelogramPerimeter;whiteSpace=wrap;html=1;fixedSize=1;" parent="WIyWlLk6GJQsqaUBKTNV-1" vertex="1">
          <mxGeometry x="550.5899999999999" y="935" width="120" height="35" as="geometry" />
        </mxCell>
        <mxCell id="gwc9V1HpgXU685YZ8IqW-198" style="edgeStyle=orthogonalEdgeStyle;rounded=0;orthogonalLoop=1;jettySize=auto;html=1;exitX=0.5;exitY=1;exitDx=0;exitDy=0;entryX=0.5;entryY=0;entryDx=0;entryDy=0;" parent="WIyWlLk6GJQsqaUBKTNV-1" source="gwc9V1HpgXU685YZ8IqW-125" target="gwc9V1HpgXU685YZ8IqW-126" edge="1">
          <mxGeometry relative="1" as="geometry" />
        </mxCell>
        <mxCell id="ZdJQOE9qIbRuk4w-m4Bv-19" style="edgeStyle=orthogonalEdgeStyle;rounded=0;orthogonalLoop=1;jettySize=auto;html=1;exitX=0;exitY=0.5;exitDx=0;exitDy=0;entryX=0;entryY=0.5;entryDx=0;entryDy=0;" parent="WIyWlLk6GJQsqaUBKTNV-1" source="gwc9V1HpgXU685YZ8IqW-125" target="gwc9V1HpgXU685YZ8IqW-123" edge="1">
          <mxGeometry relative="1" as="geometry" />
        </mxCell>
        <mxCell id="gwc9V1HpgXU685YZ8IqW-125" value="money &amp;gt;= total price" style="rhombus;whiteSpace=wrap;html=1;" parent="WIyWlLk6GJQsqaUBKTNV-1" vertex="1">
          <mxGeometry x="516.7" y="1050" width="187.78" height="55" as="geometry" />
        </mxCell>
        <mxCell id="gwc9V1HpgXU685YZ8IqW-199" style="edgeStyle=orthogonalEdgeStyle;rounded=0;orthogonalLoop=1;jettySize=auto;html=1;exitX=0.5;exitY=1;exitDx=0;exitDy=0;entryX=0.5;entryY=0;entryDx=0;entryDy=0;" parent="WIyWlLk6GJQsqaUBKTNV-1" source="gwc9V1HpgXU685YZ8IqW-126" target="gwc9V1HpgXU685YZ8IqW-143" edge="1">
          <mxGeometry relative="1" as="geometry" />
        </mxCell>
        <mxCell id="gwc9V1HpgXU685YZ8IqW-126" value="money = money - total price" style="rounded=0;whiteSpace=wrap;html=1;" parent="WIyWlLk6GJQsqaUBKTNV-1" vertex="1">
          <mxGeometry x="530.26" y="1120" width="158.48" height="40" as="geometry" />
        </mxCell>
        <mxCell id="gwc9V1HpgXU685YZ8IqW-201" style="edgeStyle=orthogonalEdgeStyle;rounded=0;orthogonalLoop=1;jettySize=auto;html=1;exitX=0.5;exitY=1;exitDx=0;exitDy=0;entryX=0.5;entryY=0;entryDx=0;entryDy=0;" parent="WIyWlLk6GJQsqaUBKTNV-1" source="gwc9V1HpgXU685YZ8IqW-127" target="gwc9V1HpgXU685YZ8IqW-128" edge="1">
          <mxGeometry relative="1" as="geometry" />
        </mxCell>
        <mxCell id="gwc9V1HpgXU685YZ8IqW-127" value="" style="ellipse;whiteSpace=wrap;html=1;aspect=fixed;" parent="WIyWlLk6GJQsqaUBKTNV-1" vertex="1">
          <mxGeometry x="597.7" y="1240" width="23.5" height="23.5" as="geometry" />
        </mxCell>
        <mxCell id="gwc9V1HpgXU685YZ8IqW-202" style="edgeStyle=orthogonalEdgeStyle;rounded=0;orthogonalLoop=1;jettySize=auto;html=1;exitX=0.5;exitY=1;exitDx=0;exitDy=0;entryX=0.5;entryY=0;entryDx=0;entryDy=0;" parent="WIyWlLk6GJQsqaUBKTNV-1" source="gwc9V1HpgXU685YZ8IqW-128" target="gwc9V1HpgXU685YZ8IqW-131" edge="1">
          <mxGeometry relative="1" as="geometry" />
        </mxCell>
        <mxCell id="gwc9V1HpgXU685YZ8IqW-253" style="edgeStyle=orthogonalEdgeStyle;rounded=0;orthogonalLoop=1;jettySize=auto;html=1;exitX=1;exitY=0.5;exitDx=0;exitDy=0;entryX=0;entryY=0.5;entryDx=0;entryDy=0;" parent="WIyWlLk6GJQsqaUBKTNV-1" source="gwc9V1HpgXU685YZ8IqW-128" target="gwc9V1HpgXU685YZ8IqW-129" edge="1">
          <mxGeometry relative="1" as="geometry" />
        </mxCell>
        <mxCell id="gwc9V1HpgXU685YZ8IqW-128" value="money &amp;gt;= 1000" style="rhombus;whiteSpace=wrap;html=1;" parent="WIyWlLk6GJQsqaUBKTNV-1" vertex="1">
          <mxGeometry x="520.15" y="1280" width="178.6" height="55" as="geometry" />
        </mxCell>
        <mxCell id="gwc9V1HpgXU685YZ8IqW-254" style="edgeStyle=orthogonalEdgeStyle;rounded=0;orthogonalLoop=1;jettySize=auto;html=1;exitX=1;exitY=0.5;exitDx=0;exitDy=0;" parent="WIyWlLk6GJQsqaUBKTNV-1" source="gwc9V1HpgXU685YZ8IqW-129" target="gwc9V1HpgXU685YZ8IqW-130" edge="1">
          <mxGeometry relative="1" as="geometry" />
        </mxCell>
        <mxCell id="gwc9V1HpgXU685YZ8IqW-129" value="1000 bath = money / 1000" style="rounded=0;whiteSpace=wrap;html=1;" parent="WIyWlLk6GJQsqaUBKTNV-1" vertex="1">
          <mxGeometry x="725" y="1286.25" width="170" height="42.5" as="geometry" />
        </mxCell>
        <mxCell id="gwc9V1HpgXU685YZ8IqW-255" style="edgeStyle=orthogonalEdgeStyle;rounded=0;orthogonalLoop=1;jettySize=auto;html=1;exitX=1;exitY=0.5;exitDx=0;exitDy=0;entryX=1;entryY=0.5;entryDx=0;entryDy=0;" parent="WIyWlLk6GJQsqaUBKTNV-1" source="gwc9V1HpgXU685YZ8IqW-130" target="gwc9V1HpgXU685YZ8IqW-127" edge="1">
          <mxGeometry relative="1" as="geometry" />
        </mxCell>
        <mxCell id="gwc9V1HpgXU685YZ8IqW-130" value="money = money % 1000" style="rounded=0;whiteSpace=wrap;html=1;" parent="WIyWlLk6GJQsqaUBKTNV-1" vertex="1">
          <mxGeometry x="927.98" y="1287.5" width="140" height="40" as="geometry" />
        </mxCell>
        <mxCell id="gwc9V1HpgXU685YZ8IqW-203" style="edgeStyle=orthogonalEdgeStyle;rounded=0;orthogonalLoop=1;jettySize=auto;html=1;exitX=0.5;exitY=1;exitDx=0;exitDy=0;entryX=0.5;entryY=0;entryDx=0;entryDy=0;" parent="WIyWlLk6GJQsqaUBKTNV-1" source="gwc9V1HpgXU685YZ8IqW-131" target="gwc9V1HpgXU685YZ8IqW-134" edge="1">
          <mxGeometry relative="1" as="geometry" />
        </mxCell>
        <mxCell id="gwc9V1HpgXU685YZ8IqW-256" style="edgeStyle=orthogonalEdgeStyle;rounded=0;orthogonalLoop=1;jettySize=auto;html=1;exitX=1;exitY=0.5;exitDx=0;exitDy=0;entryX=0;entryY=0.5;entryDx=0;entryDy=0;" parent="WIyWlLk6GJQsqaUBKTNV-1" source="ZdJQOE9qIbRuk4w-m4Bv-23" target="gwc9V1HpgXU685YZ8IqW-132" edge="1">
          <mxGeometry relative="1" as="geometry" />
        </mxCell>
        <mxCell id="gwc9V1HpgXU685YZ8IqW-131" value="money &amp;gt;= 500" style="rhombus;whiteSpace=wrap;html=1;" parent="WIyWlLk6GJQsqaUBKTNV-1" vertex="1">
          <mxGeometry x="520.2" y="1350" width="178.6" height="55" as="geometry" />
        </mxCell>
        <mxCell id="gwc9V1HpgXU685YZ8IqW-257" style="edgeStyle=orthogonalEdgeStyle;rounded=0;orthogonalLoop=1;jettySize=auto;html=1;exitX=1;exitY=0.5;exitDx=0;exitDy=0;entryX=0;entryY=0.5;entryDx=0;entryDy=0;" parent="WIyWlLk6GJQsqaUBKTNV-1" source="gwc9V1HpgXU685YZ8IqW-132" target="gwc9V1HpgXU685YZ8IqW-133" edge="1">
          <mxGeometry relative="1" as="geometry" />
        </mxCell>
        <mxCell id="gwc9V1HpgXU685YZ8IqW-132" value="500 bath = money / 500" style="rounded=0;whiteSpace=wrap;html=1;" parent="WIyWlLk6GJQsqaUBKTNV-1" vertex="1">
          <mxGeometry x="726.0899999999999" y="1356.25" width="170" height="42.5" as="geometry" />
        </mxCell>
        <mxCell id="gwc9V1HpgXU685YZ8IqW-258" style="edgeStyle=orthogonalEdgeStyle;rounded=0;orthogonalLoop=1;jettySize=auto;html=1;exitX=1;exitY=0.5;exitDx=0;exitDy=0;entryX=1;entryY=0.5;entryDx=0;entryDy=0;" parent="WIyWlLk6GJQsqaUBKTNV-1" source="gwc9V1HpgXU685YZ8IqW-133" target="gwc9V1HpgXU685YZ8IqW-127" edge="1">
          <mxGeometry relative="1" as="geometry" />
        </mxCell>
        <mxCell id="gwc9V1HpgXU685YZ8IqW-133" value="money = money % 500" style="rounded=0;whiteSpace=wrap;html=1;" parent="WIyWlLk6GJQsqaUBKTNV-1" vertex="1">
          <mxGeometry x="927.98" y="1357.5" width="140" height="40" as="geometry" />
        </mxCell>
        <mxCell id="gwc9V1HpgXU685YZ8IqW-205" style="edgeStyle=orthogonalEdgeStyle;rounded=0;orthogonalLoop=1;jettySize=auto;html=1;exitX=0.5;exitY=1;exitDx=0;exitDy=0;entryX=0.5;entryY=0;entryDx=0;entryDy=0;" parent="WIyWlLk6GJQsqaUBKTNV-1" source="gwc9V1HpgXU685YZ8IqW-134" target="gwc9V1HpgXU685YZ8IqW-137" edge="1">
          <mxGeometry relative="1" as="geometry" />
        </mxCell>
        <mxCell id="gwc9V1HpgXU685YZ8IqW-259" style="edgeStyle=orthogonalEdgeStyle;rounded=0;orthogonalLoop=1;jettySize=auto;html=1;exitX=1;exitY=0.5;exitDx=0;exitDy=0;entryX=0;entryY=0.5;entryDx=0;entryDy=0;" parent="WIyWlLk6GJQsqaUBKTNV-1" source="gwc9V1HpgXU685YZ8IqW-134" target="gwc9V1HpgXU685YZ8IqW-135" edge="1">
          <mxGeometry relative="1" as="geometry" />
        </mxCell>
        <mxCell id="gwc9V1HpgXU685YZ8IqW-134" value="money &amp;gt;= 100" style="rhombus;whiteSpace=wrap;html=1;" parent="WIyWlLk6GJQsqaUBKTNV-1" vertex="1">
          <mxGeometry x="520.2" y="1420" width="178.6" height="55" as="geometry" />
        </mxCell>
        <mxCell id="gwc9V1HpgXU685YZ8IqW-260" value="" style="edgeStyle=orthogonalEdgeStyle;rounded=0;orthogonalLoop=1;jettySize=auto;html=1;" parent="WIyWlLk6GJQsqaUBKTNV-1" source="gwc9V1HpgXU685YZ8IqW-135" target="gwc9V1HpgXU685YZ8IqW-136" edge="1">
          <mxGeometry relative="1" as="geometry" />
        </mxCell>
        <mxCell id="gwc9V1HpgXU685YZ8IqW-135" value="100 bath = money / 100" style="rounded=0;whiteSpace=wrap;html=1;" parent="WIyWlLk6GJQsqaUBKTNV-1" vertex="1">
          <mxGeometry x="726.0899999999999" y="1426.25" width="170" height="42.5" as="geometry" />
        </mxCell>
        <mxCell id="gwc9V1HpgXU685YZ8IqW-261" style="edgeStyle=orthogonalEdgeStyle;rounded=0;orthogonalLoop=1;jettySize=auto;html=1;exitX=1;exitY=0.5;exitDx=0;exitDy=0;entryX=1;entryY=0.5;entryDx=0;entryDy=0;" parent="WIyWlLk6GJQsqaUBKTNV-1" source="gwc9V1HpgXU685YZ8IqW-136" target="gwc9V1HpgXU685YZ8IqW-127" edge="1">
          <mxGeometry relative="1" as="geometry" />
        </mxCell>
        <mxCell id="gwc9V1HpgXU685YZ8IqW-136" value="money = money % 100" style="rounded=0;whiteSpace=wrap;html=1;" parent="WIyWlLk6GJQsqaUBKTNV-1" vertex="1">
          <mxGeometry x="927.98" y="1427.5" width="140" height="40" as="geometry" />
        </mxCell>
        <mxCell id="gwc9V1HpgXU685YZ8IqW-206" style="edgeStyle=orthogonalEdgeStyle;rounded=0;orthogonalLoop=1;jettySize=auto;html=1;exitX=0.5;exitY=1;exitDx=0;exitDy=0;entryX=0.5;entryY=0;entryDx=0;entryDy=0;" parent="WIyWlLk6GJQsqaUBKTNV-1" source="gwc9V1HpgXU685YZ8IqW-137" target="gwc9V1HpgXU685YZ8IqW-140" edge="1">
          <mxGeometry relative="1" as="geometry" />
        </mxCell>
        <mxCell id="gwc9V1HpgXU685YZ8IqW-262" value="" style="edgeStyle=orthogonalEdgeStyle;rounded=0;orthogonalLoop=1;jettySize=auto;html=1;" parent="WIyWlLk6GJQsqaUBKTNV-1" source="gwc9V1HpgXU685YZ8IqW-137" target="gwc9V1HpgXU685YZ8IqW-138" edge="1">
          <mxGeometry relative="1" as="geometry" />
        </mxCell>
        <mxCell id="gwc9V1HpgXU685YZ8IqW-137" value="money &amp;gt;= 50" style="rhombus;whiteSpace=wrap;html=1;" parent="WIyWlLk6GJQsqaUBKTNV-1" vertex="1">
          <mxGeometry x="521.62" y="1490" width="178.6" height="55" as="geometry" />
        </mxCell>
        <mxCell id="gwc9V1HpgXU685YZ8IqW-263" value="" style="edgeStyle=orthogonalEdgeStyle;rounded=0;orthogonalLoop=1;jettySize=auto;html=1;" parent="WIyWlLk6GJQsqaUBKTNV-1" source="gwc9V1HpgXU685YZ8IqW-138" target="gwc9V1HpgXU685YZ8IqW-139" edge="1">
          <mxGeometry relative="1" as="geometry" />
        </mxCell>
        <mxCell id="gwc9V1HpgXU685YZ8IqW-138" value="50 bath = money / 50" style="rounded=0;whiteSpace=wrap;html=1;" parent="WIyWlLk6GJQsqaUBKTNV-1" vertex="1">
          <mxGeometry x="727.98" y="1496.25" width="170" height="42.5" as="geometry" />
        </mxCell>
        <mxCell id="gwc9V1HpgXU685YZ8IqW-264" style="edgeStyle=orthogonalEdgeStyle;rounded=0;orthogonalLoop=1;jettySize=auto;html=1;exitX=1;exitY=0.5;exitDx=0;exitDy=0;entryX=1;entryY=0.5;entryDx=0;entryDy=0;" parent="WIyWlLk6GJQsqaUBKTNV-1" source="gwc9V1HpgXU685YZ8IqW-139" target="gwc9V1HpgXU685YZ8IqW-127" edge="1">
          <mxGeometry relative="1" as="geometry" />
        </mxCell>
        <mxCell id="gwc9V1HpgXU685YZ8IqW-139" value="money = money % 50" style="rounded=0;whiteSpace=wrap;html=1;" parent="WIyWlLk6GJQsqaUBKTNV-1" vertex="1">
          <mxGeometry x="927.98" y="1498.75" width="140" height="40" as="geometry" />
        </mxCell>
        <mxCell id="gwc9V1HpgXU685YZ8IqW-207" style="edgeStyle=orthogonalEdgeStyle;rounded=0;orthogonalLoop=1;jettySize=auto;html=1;exitX=0.5;exitY=1;exitDx=0;exitDy=0;entryX=0.5;entryY=0;entryDx=0;entryDy=0;" parent="WIyWlLk6GJQsqaUBKTNV-1" source="gwc9V1HpgXU685YZ8IqW-140" target="gwc9V1HpgXU685YZ8IqW-145" edge="1">
          <mxGeometry relative="1" as="geometry" />
        </mxCell>
        <mxCell id="gwc9V1HpgXU685YZ8IqW-265" value="" style="edgeStyle=orthogonalEdgeStyle;rounded=0;orthogonalLoop=1;jettySize=auto;html=1;" parent="WIyWlLk6GJQsqaUBKTNV-1" source="gwc9V1HpgXU685YZ8IqW-140" target="gwc9V1HpgXU685YZ8IqW-141" edge="1">
          <mxGeometry relative="1" as="geometry" />
        </mxCell>
        <mxCell id="gwc9V1HpgXU685YZ8IqW-140" value="money &amp;gt;= 10" style="rhombus;whiteSpace=wrap;html=1;" parent="WIyWlLk6GJQsqaUBKTNV-1" vertex="1">
          <mxGeometry x="520.2" y="1560" width="178.6" height="55" as="geometry" />
        </mxCell>
        <mxCell id="gwc9V1HpgXU685YZ8IqW-266" value="" style="edgeStyle=orthogonalEdgeStyle;rounded=0;orthogonalLoop=1;jettySize=auto;html=1;" parent="WIyWlLk6GJQsqaUBKTNV-1" source="gwc9V1HpgXU685YZ8IqW-141" target="gwc9V1HpgXU685YZ8IqW-142" edge="1">
          <mxGeometry relative="1" as="geometry" />
        </mxCell>
        <mxCell id="gwc9V1HpgXU685YZ8IqW-141" value="10 bath = money / 10" style="rounded=0;whiteSpace=wrap;html=1;" parent="WIyWlLk6GJQsqaUBKTNV-1" vertex="1">
          <mxGeometry x="727.98" y="1566.25" width="170" height="42.5" as="geometry" />
        </mxCell>
        <mxCell id="gwc9V1HpgXU685YZ8IqW-267" style="edgeStyle=orthogonalEdgeStyle;rounded=0;orthogonalLoop=1;jettySize=auto;html=1;exitX=1;exitY=0.5;exitDx=0;exitDy=0;entryX=1;entryY=0.5;entryDx=0;entryDy=0;" parent="WIyWlLk6GJQsqaUBKTNV-1" source="gwc9V1HpgXU685YZ8IqW-142" target="gwc9V1HpgXU685YZ8IqW-127" edge="1">
          <mxGeometry relative="1" as="geometry" />
        </mxCell>
        <mxCell id="gwc9V1HpgXU685YZ8IqW-142" value="money = money % 10" style="rounded=0;whiteSpace=wrap;html=1;" parent="WIyWlLk6GJQsqaUBKTNV-1" vertex="1">
          <mxGeometry x="927.98" y="1567.5" width="140" height="40" as="geometry" />
        </mxCell>
        <mxCell id="gwc9V1HpgXU685YZ8IqW-200" style="edgeStyle=orthogonalEdgeStyle;rounded=0;orthogonalLoop=1;jettySize=auto;html=1;exitX=0.5;exitY=1;exitDx=0;exitDy=0;entryX=0.5;entryY=0;entryDx=0;entryDy=0;" parent="WIyWlLk6GJQsqaUBKTNV-1" source="gwc9V1HpgXU685YZ8IqW-143" target="gwc9V1HpgXU685YZ8IqW-127" edge="1">
          <mxGeometry relative="1" as="geometry" />
        </mxCell>
        <mxCell id="gwc9V1HpgXU685YZ8IqW-143" value="&lt;span style=&quot;text-align: justify;&quot;&gt;remaining balance&lt;/span&gt;&amp;nbsp;=&amp;nbsp;&lt;span style=&quot;text-align: justify;&quot;&gt;remaining balance&lt;/span&gt;&amp;nbsp;- money" style="rounded=0;whiteSpace=wrap;html=1;" parent="WIyWlLk6GJQsqaUBKTNV-1" vertex="1">
          <mxGeometry x="518.69" y="1180" width="183.81" height="40" as="geometry" />
        </mxCell>
        <mxCell id="gwc9V1HpgXU685YZ8IqW-197" style="edgeStyle=orthogonalEdgeStyle;rounded=0;orthogonalLoop=1;jettySize=auto;html=1;exitX=0.5;exitY=1;exitDx=0;exitDy=0;entryX=0.5;entryY=0;entryDx=0;entryDy=0;" parent="WIyWlLk6GJQsqaUBKTNV-1" source="gwc9V1HpgXU685YZ8IqW-144" target="gwc9V1HpgXU685YZ8IqW-125" edge="1">
          <mxGeometry relative="1" as="geometry" />
        </mxCell>
        <mxCell id="gwc9V1HpgXU685YZ8IqW-144" value="money = money + pay" style="rounded=0;whiteSpace=wrap;html=1;" parent="WIyWlLk6GJQsqaUBKTNV-1" vertex="1">
          <mxGeometry x="540.26" y="990" width="138.48" height="40" as="geometry" />
        </mxCell>
        <mxCell id="gwc9V1HpgXU685YZ8IqW-208" style="edgeStyle=orthogonalEdgeStyle;rounded=0;orthogonalLoop=1;jettySize=auto;html=1;exitX=0.5;exitY=1;exitDx=0;exitDy=0;entryX=0.5;entryY=0;entryDx=0;entryDy=0;" parent="WIyWlLk6GJQsqaUBKTNV-1" source="gwc9V1HpgXU685YZ8IqW-145" target="gwc9V1HpgXU685YZ8IqW-148" edge="1">
          <mxGeometry relative="1" as="geometry" />
        </mxCell>
        <mxCell id="gwc9V1HpgXU685YZ8IqW-268" value="" style="edgeStyle=orthogonalEdgeStyle;rounded=0;orthogonalLoop=1;jettySize=auto;html=1;" parent="WIyWlLk6GJQsqaUBKTNV-1" source="gwc9V1HpgXU685YZ8IqW-145" target="gwc9V1HpgXU685YZ8IqW-146" edge="1">
          <mxGeometry relative="1" as="geometry" />
        </mxCell>
        <mxCell id="gwc9V1HpgXU685YZ8IqW-145" value="money &amp;gt;= 5" style="rhombus;whiteSpace=wrap;html=1;" parent="WIyWlLk6GJQsqaUBKTNV-1" vertex="1">
          <mxGeometry x="517.79" y="1640" width="178.6" height="55" as="geometry" />
        </mxCell>
        <mxCell id="gwc9V1HpgXU685YZ8IqW-269" value="" style="edgeStyle=orthogonalEdgeStyle;rounded=0;orthogonalLoop=1;jettySize=auto;html=1;" parent="WIyWlLk6GJQsqaUBKTNV-1" source="gwc9V1HpgXU685YZ8IqW-146" target="gwc9V1HpgXU685YZ8IqW-147" edge="1">
          <mxGeometry relative="1" as="geometry" />
        </mxCell>
        <mxCell id="gwc9V1HpgXU685YZ8IqW-146" value="5 bath = money / 5" style="rounded=0;whiteSpace=wrap;html=1;" parent="WIyWlLk6GJQsqaUBKTNV-1" vertex="1">
          <mxGeometry x="727.98" y="1646.25" width="170" height="42.5" as="geometry" />
        </mxCell>
        <mxCell id="gwc9V1HpgXU685YZ8IqW-270" style="edgeStyle=orthogonalEdgeStyle;rounded=0;orthogonalLoop=1;jettySize=auto;html=1;exitX=1;exitY=0.5;exitDx=0;exitDy=0;entryX=1;entryY=0.5;entryDx=0;entryDy=0;" parent="WIyWlLk6GJQsqaUBKTNV-1" source="gwc9V1HpgXU685YZ8IqW-147" target="gwc9V1HpgXU685YZ8IqW-127" edge="1">
          <mxGeometry relative="1" as="geometry" />
        </mxCell>
        <mxCell id="gwc9V1HpgXU685YZ8IqW-147" value="money = money % 5" style="rounded=0;whiteSpace=wrap;html=1;" parent="WIyWlLk6GJQsqaUBKTNV-1" vertex="1">
          <mxGeometry x="927.98" y="1648.75" width="140" height="40" as="geometry" />
        </mxCell>
        <mxCell id="gwc9V1HpgXU685YZ8IqW-209" style="edgeStyle=orthogonalEdgeStyle;rounded=0;orthogonalLoop=1;jettySize=auto;html=1;exitX=0.5;exitY=1;exitDx=0;exitDy=0;entryX=0.5;entryY=0;entryDx=0;entryDy=0;" parent="WIyWlLk6GJQsqaUBKTNV-1" source="gwc9V1HpgXU685YZ8IqW-148" target="gwc9V1HpgXU685YZ8IqW-151" edge="1">
          <mxGeometry relative="1" as="geometry" />
        </mxCell>
        <mxCell id="gwc9V1HpgXU685YZ8IqW-271" value="" style="edgeStyle=orthogonalEdgeStyle;rounded=0;orthogonalLoop=1;jettySize=auto;html=1;" parent="WIyWlLk6GJQsqaUBKTNV-1" source="gwc9V1HpgXU685YZ8IqW-148" target="gwc9V1HpgXU685YZ8IqW-149" edge="1">
          <mxGeometry relative="1" as="geometry" />
        </mxCell>
        <mxCell id="gwc9V1HpgXU685YZ8IqW-148" value="money &amp;gt;= 2" style="rhombus;whiteSpace=wrap;html=1;" parent="WIyWlLk6GJQsqaUBKTNV-1" vertex="1">
          <mxGeometry x="517.79" y="1720" width="178.6" height="55" as="geometry" />
        </mxCell>
        <mxCell id="gwc9V1HpgXU685YZ8IqW-272" value="" style="edgeStyle=orthogonalEdgeStyle;rounded=0;orthogonalLoop=1;jettySize=auto;html=1;" parent="WIyWlLk6GJQsqaUBKTNV-1" source="gwc9V1HpgXU685YZ8IqW-149" target="gwc9V1HpgXU685YZ8IqW-150" edge="1">
          <mxGeometry relative="1" as="geometry" />
        </mxCell>
        <mxCell id="gwc9V1HpgXU685YZ8IqW-149" value="2 bath = money / 2" style="rounded=0;whiteSpace=wrap;html=1;" parent="WIyWlLk6GJQsqaUBKTNV-1" vertex="1">
          <mxGeometry x="727.98" y="1726.25" width="170" height="42.5" as="geometry" />
        </mxCell>
        <mxCell id="gwc9V1HpgXU685YZ8IqW-273" style="edgeStyle=orthogonalEdgeStyle;rounded=0;orthogonalLoop=1;jettySize=auto;html=1;exitX=1;exitY=0.5;exitDx=0;exitDy=0;entryX=1;entryY=0.5;entryDx=0;entryDy=0;" parent="WIyWlLk6GJQsqaUBKTNV-1" source="gwc9V1HpgXU685YZ8IqW-150" target="gwc9V1HpgXU685YZ8IqW-127" edge="1">
          <mxGeometry relative="1" as="geometry" />
        </mxCell>
        <mxCell id="gwc9V1HpgXU685YZ8IqW-150" value="money = money % 2" style="rounded=0;whiteSpace=wrap;html=1;" parent="WIyWlLk6GJQsqaUBKTNV-1" vertex="1">
          <mxGeometry x="927.98" y="1728.75" width="140" height="40" as="geometry" />
        </mxCell>
        <mxCell id="gwc9V1HpgXU685YZ8IqW-210" style="edgeStyle=orthogonalEdgeStyle;rounded=0;orthogonalLoop=1;jettySize=auto;html=1;exitX=0.5;exitY=1;exitDx=0;exitDy=0;entryX=0.5;entryY=0;entryDx=0;entryDy=0;" parent="WIyWlLk6GJQsqaUBKTNV-1" source="gwc9V1HpgXU685YZ8IqW-151" target="gwc9V1HpgXU685YZ8IqW-155" edge="1">
          <mxGeometry relative="1" as="geometry" />
        </mxCell>
        <mxCell id="gwc9V1HpgXU685YZ8IqW-274" value="" style="edgeStyle=orthogonalEdgeStyle;rounded=0;orthogonalLoop=1;jettySize=auto;html=1;" parent="WIyWlLk6GJQsqaUBKTNV-1" source="gwc9V1HpgXU685YZ8IqW-151" target="gwc9V1HpgXU685YZ8IqW-152" edge="1">
          <mxGeometry relative="1" as="geometry" />
        </mxCell>
        <mxCell id="gwc9V1HpgXU685YZ8IqW-151" value="money &amp;gt;= 1" style="rhombus;whiteSpace=wrap;html=1;" parent="WIyWlLk6GJQsqaUBKTNV-1" vertex="1">
          <mxGeometry x="520.2" y="1800" width="178.6" height="55" as="geometry" />
        </mxCell>
        <mxCell id="gwc9V1HpgXU685YZ8IqW-275" value="" style="edgeStyle=orthogonalEdgeStyle;rounded=0;orthogonalLoop=1;jettySize=auto;html=1;" parent="WIyWlLk6GJQsqaUBKTNV-1" source="gwc9V1HpgXU685YZ8IqW-152" target="gwc9V1HpgXU685YZ8IqW-154" edge="1">
          <mxGeometry relative="1" as="geometry" />
        </mxCell>
        <mxCell id="gwc9V1HpgXU685YZ8IqW-152" value="1 bath = money / 1" style="rounded=0;whiteSpace=wrap;html=1;" parent="WIyWlLk6GJQsqaUBKTNV-1" vertex="1">
          <mxGeometry x="727.98" y="1806.25" width="170" height="42.5" as="geometry" />
        </mxCell>
        <mxCell id="gwc9V1HpgXU685YZ8IqW-276" style="edgeStyle=orthogonalEdgeStyle;rounded=0;orthogonalLoop=1;jettySize=auto;html=1;exitX=1;exitY=0.5;exitDx=0;exitDy=0;entryX=1;entryY=0.5;entryDx=0;entryDy=0;" parent="WIyWlLk6GJQsqaUBKTNV-1" source="gwc9V1HpgXU685YZ8IqW-154" target="gwc9V1HpgXU685YZ8IqW-127" edge="1">
          <mxGeometry relative="1" as="geometry" />
        </mxCell>
        <mxCell id="gwc9V1HpgXU685YZ8IqW-154" value="money = money % 1" style="rounded=0;whiteSpace=wrap;html=1;" parent="WIyWlLk6GJQsqaUBKTNV-1" vertex="1">
          <mxGeometry x="927.98" y="1806.25" width="140" height="40" as="geometry" />
        </mxCell>
        <mxCell id="gwc9V1HpgXU685YZ8IqW-211" style="edgeStyle=orthogonalEdgeStyle;rounded=0;orthogonalLoop=1;jettySize=auto;html=1;exitX=0.5;exitY=1;exitDx=0;exitDy=0;entryX=0.5;entryY=0;entryDx=0;entryDy=0;" parent="WIyWlLk6GJQsqaUBKTNV-1" source="gwc9V1HpgXU685YZ8IqW-155" target="gwc9V1HpgXU685YZ8IqW-180" edge="1">
          <mxGeometry relative="1" as="geometry" />
        </mxCell>
        <mxCell id="gwc9V1HpgXU685YZ8IqW-155" value="ทอนเงินให้กับลูกค้า" style="rounded=0;whiteSpace=wrap;html=1;" parent="WIyWlLk6GJQsqaUBKTNV-1" vertex="1">
          <mxGeometry x="550.59" y="1880" width="120" height="40" as="geometry" />
        </mxCell>
        <mxCell id="gwc9V1HpgXU685YZ8IqW-214" style="edgeStyle=orthogonalEdgeStyle;rounded=0;orthogonalLoop=1;jettySize=auto;html=1;exitX=0.5;exitY=1;exitDx=0;exitDy=0;entryX=0.5;entryY=0;entryDx=0;entryDy=0;" parent="WIyWlLk6GJQsqaUBKTNV-1" source="gwc9V1HpgXU685YZ8IqW-156" target="gwc9V1HpgXU685YZ8IqW-159" edge="1">
          <mxGeometry relative="1" as="geometry" />
        </mxCell>
        <mxCell id="gwc9V1HpgXU685YZ8IqW-284" style="edgeStyle=orthogonalEdgeStyle;rounded=0;orthogonalLoop=1;jettySize=auto;html=1;exitX=1;exitY=0.5;exitDx=0;exitDy=0;entryX=0;entryY=0.5;entryDx=0;entryDy=0;" parent="WIyWlLk6GJQsqaUBKTNV-1" source="gwc9V1HpgXU685YZ8IqW-156" target="gwc9V1HpgXU685YZ8IqW-157" edge="1">
          <mxGeometry relative="1" as="geometry" />
        </mxCell>
        <mxCell id="gwc9V1HpgXU685YZ8IqW-156" value="money left&amp;nbsp;&amp;gt;= 1000" style="rhombus;whiteSpace=wrap;html=1;" parent="WIyWlLk6GJQsqaUBKTNV-1" vertex="1">
          <mxGeometry x="521.79" y="2200" width="178.6" height="55" as="geometry" />
        </mxCell>
        <mxCell id="gwc9V1HpgXU685YZ8IqW-285" style="edgeStyle=orthogonalEdgeStyle;rounded=0;orthogonalLoop=1;jettySize=auto;html=1;exitX=1;exitY=0.5;exitDx=0;exitDy=0;entryX=0;entryY=0.5;entryDx=0;entryDy=0;" parent="WIyWlLk6GJQsqaUBKTNV-1" source="gwc9V1HpgXU685YZ8IqW-157" target="gwc9V1HpgXU685YZ8IqW-158" edge="1">
          <mxGeometry relative="1" as="geometry" />
        </mxCell>
        <mxCell id="gwc9V1HpgXU685YZ8IqW-157" value="1000 bath = money left/ 1000" style="rounded=0;whiteSpace=wrap;html=1;" parent="WIyWlLk6GJQsqaUBKTNV-1" vertex="1">
          <mxGeometry x="726.5899999999999" y="2206.25" width="170" height="42.5" as="geometry" />
        </mxCell>
        <mxCell id="gwc9V1HpgXU685YZ8IqW-300" style="edgeStyle=orthogonalEdgeStyle;rounded=0;orthogonalLoop=1;jettySize=auto;html=1;exitX=1;exitY=0.5;exitDx=0;exitDy=0;entryX=1;entryY=0.5;entryDx=0;entryDy=0;" parent="WIyWlLk6GJQsqaUBKTNV-1" source="gwc9V1HpgXU685YZ8IqW-158" target="gwc9V1HpgXU685YZ8IqW-279" edge="1">
          <mxGeometry relative="1" as="geometry" />
        </mxCell>
        <mxCell id="gwc9V1HpgXU685YZ8IqW-158" value="money left = money left&amp;nbsp;% 1000" style="rounded=0;whiteSpace=wrap;html=1;" parent="WIyWlLk6GJQsqaUBKTNV-1" vertex="1">
          <mxGeometry x="929.5699999999999" y="2207.5" width="177.59" height="40" as="geometry" />
        </mxCell>
        <mxCell id="gwc9V1HpgXU685YZ8IqW-215" style="edgeStyle=orthogonalEdgeStyle;rounded=0;orthogonalLoop=1;jettySize=auto;html=1;exitX=0.5;exitY=1;exitDx=0;exitDy=0;entryX=0.5;entryY=0;entryDx=0;entryDy=0;" parent="WIyWlLk6GJQsqaUBKTNV-1" source="gwc9V1HpgXU685YZ8IqW-159" target="gwc9V1HpgXU685YZ8IqW-162" edge="1">
          <mxGeometry relative="1" as="geometry" />
        </mxCell>
        <mxCell id="gwc9V1HpgXU685YZ8IqW-286" value="" style="edgeStyle=orthogonalEdgeStyle;rounded=0;orthogonalLoop=1;jettySize=auto;html=1;" parent="WIyWlLk6GJQsqaUBKTNV-1" source="gwc9V1HpgXU685YZ8IqW-159" target="gwc9V1HpgXU685YZ8IqW-160" edge="1">
          <mxGeometry relative="1" as="geometry" />
        </mxCell>
        <mxCell id="gwc9V1HpgXU685YZ8IqW-159" value="money left&amp;nbsp;&amp;gt;= 500" style="rhombus;whiteSpace=wrap;html=1;" parent="WIyWlLk6GJQsqaUBKTNV-1" vertex="1">
          <mxGeometry x="521.79" y="2270" width="178.6" height="55" as="geometry" />
        </mxCell>
        <mxCell id="gwc9V1HpgXU685YZ8IqW-287" value="" style="edgeStyle=orthogonalEdgeStyle;rounded=0;orthogonalLoop=1;jettySize=auto;html=1;" parent="WIyWlLk6GJQsqaUBKTNV-1" source="gwc9V1HpgXU685YZ8IqW-160" target="gwc9V1HpgXU685YZ8IqW-161" edge="1">
          <mxGeometry relative="1" as="geometry" />
        </mxCell>
        <mxCell id="gwc9V1HpgXU685YZ8IqW-160" value="500 bath = money left / 500" style="rounded=0;whiteSpace=wrap;html=1;" parent="WIyWlLk6GJQsqaUBKTNV-1" vertex="1">
          <mxGeometry x="727.68" y="2276.25" width="170" height="42.5" as="geometry" />
        </mxCell>
        <mxCell id="gwc9V1HpgXU685YZ8IqW-301" style="edgeStyle=orthogonalEdgeStyle;rounded=0;orthogonalLoop=1;jettySize=auto;html=1;exitX=1;exitY=0.5;exitDx=0;exitDy=0;entryX=1;entryY=0.5;entryDx=0;entryDy=0;" parent="WIyWlLk6GJQsqaUBKTNV-1" source="gwc9V1HpgXU685YZ8IqW-161" target="gwc9V1HpgXU685YZ8IqW-279" edge="1">
          <mxGeometry relative="1" as="geometry" />
        </mxCell>
        <mxCell id="gwc9V1HpgXU685YZ8IqW-161" value="money left&amp;nbsp;= money left&amp;nbsp;% 500" style="rounded=0;whiteSpace=wrap;html=1;" parent="WIyWlLk6GJQsqaUBKTNV-1" vertex="1">
          <mxGeometry x="929.5699999999999" y="2277.5" width="177.59" height="40" as="geometry" />
        </mxCell>
        <mxCell id="gwc9V1HpgXU685YZ8IqW-216" style="edgeStyle=orthogonalEdgeStyle;rounded=0;orthogonalLoop=1;jettySize=auto;html=1;exitX=0.5;exitY=1;exitDx=0;exitDy=0;entryX=0.5;entryY=0;entryDx=0;entryDy=0;" parent="WIyWlLk6GJQsqaUBKTNV-1" source="gwc9V1HpgXU685YZ8IqW-162" target="gwc9V1HpgXU685YZ8IqW-165" edge="1">
          <mxGeometry relative="1" as="geometry" />
        </mxCell>
        <mxCell id="gwc9V1HpgXU685YZ8IqW-288" value="" style="edgeStyle=orthogonalEdgeStyle;rounded=0;orthogonalLoop=1;jettySize=auto;html=1;" parent="WIyWlLk6GJQsqaUBKTNV-1" source="gwc9V1HpgXU685YZ8IqW-162" target="gwc9V1HpgXU685YZ8IqW-163" edge="1">
          <mxGeometry relative="1" as="geometry" />
        </mxCell>
        <mxCell id="gwc9V1HpgXU685YZ8IqW-162" value="money left &amp;gt;= 100" style="rhombus;whiteSpace=wrap;html=1;" parent="WIyWlLk6GJQsqaUBKTNV-1" vertex="1">
          <mxGeometry x="521.79" y="2340" width="178.6" height="55" as="geometry" />
        </mxCell>
        <mxCell id="gwc9V1HpgXU685YZ8IqW-289" value="" style="edgeStyle=orthogonalEdgeStyle;rounded=0;orthogonalLoop=1;jettySize=auto;html=1;" parent="WIyWlLk6GJQsqaUBKTNV-1" source="gwc9V1HpgXU685YZ8IqW-163" target="gwc9V1HpgXU685YZ8IqW-164" edge="1">
          <mxGeometry relative="1" as="geometry" />
        </mxCell>
        <mxCell id="gwc9V1HpgXU685YZ8IqW-163" value="100 bath = money left / 100" style="rounded=0;whiteSpace=wrap;html=1;" parent="WIyWlLk6GJQsqaUBKTNV-1" vertex="1">
          <mxGeometry x="727.68" y="2346.25" width="170" height="42.5" as="geometry" />
        </mxCell>
        <mxCell id="gwc9V1HpgXU685YZ8IqW-302" style="edgeStyle=orthogonalEdgeStyle;rounded=0;orthogonalLoop=1;jettySize=auto;html=1;exitX=1;exitY=0.5;exitDx=0;exitDy=0;entryX=1;entryY=0.5;entryDx=0;entryDy=0;" parent="WIyWlLk6GJQsqaUBKTNV-1" source="gwc9V1HpgXU685YZ8IqW-164" target="gwc9V1HpgXU685YZ8IqW-279" edge="1">
          <mxGeometry relative="1" as="geometry" />
        </mxCell>
        <mxCell id="gwc9V1HpgXU685YZ8IqW-164" value="money left = money left % 100" style="rounded=0;whiteSpace=wrap;html=1;" parent="WIyWlLk6GJQsqaUBKTNV-1" vertex="1">
          <mxGeometry x="929.5699999999999" y="2347.5" width="177.59" height="40" as="geometry" />
        </mxCell>
        <mxCell id="gwc9V1HpgXU685YZ8IqW-217" style="edgeStyle=orthogonalEdgeStyle;rounded=0;orthogonalLoop=1;jettySize=auto;html=1;exitX=0.5;exitY=1;exitDx=0;exitDy=0;entryX=0.5;entryY=0;entryDx=0;entryDy=0;" parent="WIyWlLk6GJQsqaUBKTNV-1" source="gwc9V1HpgXU685YZ8IqW-165" target="gwc9V1HpgXU685YZ8IqW-168" edge="1">
          <mxGeometry relative="1" as="geometry" />
        </mxCell>
        <mxCell id="gwc9V1HpgXU685YZ8IqW-290" value="" style="edgeStyle=orthogonalEdgeStyle;rounded=0;orthogonalLoop=1;jettySize=auto;html=1;" parent="WIyWlLk6GJQsqaUBKTNV-1" source="gwc9V1HpgXU685YZ8IqW-165" target="gwc9V1HpgXU685YZ8IqW-166" edge="1">
          <mxGeometry relative="1" as="geometry" />
        </mxCell>
        <mxCell id="gwc9V1HpgXU685YZ8IqW-165" value="money left &amp;gt;= 50" style="rhombus;whiteSpace=wrap;html=1;" parent="WIyWlLk6GJQsqaUBKTNV-1" vertex="1">
          <mxGeometry x="519.38" y="2410" width="178.6" height="55" as="geometry" />
        </mxCell>
        <mxCell id="gwc9V1HpgXU685YZ8IqW-291" value="" style="edgeStyle=orthogonalEdgeStyle;rounded=0;orthogonalLoop=1;jettySize=auto;html=1;" parent="WIyWlLk6GJQsqaUBKTNV-1" source="gwc9V1HpgXU685YZ8IqW-166" target="gwc9V1HpgXU685YZ8IqW-167" edge="1">
          <mxGeometry relative="1" as="geometry" />
        </mxCell>
        <mxCell id="gwc9V1HpgXU685YZ8IqW-166" value="50 bath = money left/ 50" style="rounded=0;whiteSpace=wrap;html=1;" parent="WIyWlLk6GJQsqaUBKTNV-1" vertex="1">
          <mxGeometry x="729.5699999999999" y="2416.25" width="170" height="42.5" as="geometry" />
        </mxCell>
        <mxCell id="gwc9V1HpgXU685YZ8IqW-303" style="edgeStyle=orthogonalEdgeStyle;rounded=0;orthogonalLoop=1;jettySize=auto;html=1;exitX=1;exitY=0.5;exitDx=0;exitDy=0;entryX=1;entryY=0.5;entryDx=0;entryDy=0;" parent="WIyWlLk6GJQsqaUBKTNV-1" source="gwc9V1HpgXU685YZ8IqW-167" target="gwc9V1HpgXU685YZ8IqW-279" edge="1">
          <mxGeometry relative="1" as="geometry" />
        </mxCell>
        <mxCell id="gwc9V1HpgXU685YZ8IqW-167" value="money left = money left % 50" style="rounded=0;whiteSpace=wrap;html=1;" parent="WIyWlLk6GJQsqaUBKTNV-1" vertex="1">
          <mxGeometry x="929.5699999999999" y="2417.5" width="177.59" height="40" as="geometry" />
        </mxCell>
        <mxCell id="gwc9V1HpgXU685YZ8IqW-218" style="edgeStyle=orthogonalEdgeStyle;rounded=0;orthogonalLoop=1;jettySize=auto;html=1;exitX=0.5;exitY=1;exitDx=0;exitDy=0;entryX=0.5;entryY=0;entryDx=0;entryDy=0;" parent="WIyWlLk6GJQsqaUBKTNV-1" source="gwc9V1HpgXU685YZ8IqW-168" target="gwc9V1HpgXU685YZ8IqW-171" edge="1">
          <mxGeometry relative="1" as="geometry" />
        </mxCell>
        <mxCell id="gwc9V1HpgXU685YZ8IqW-292" value="" style="edgeStyle=orthogonalEdgeStyle;rounded=0;orthogonalLoop=1;jettySize=auto;html=1;" parent="WIyWlLk6GJQsqaUBKTNV-1" source="gwc9V1HpgXU685YZ8IqW-168" target="gwc9V1HpgXU685YZ8IqW-169" edge="1">
          <mxGeometry relative="1" as="geometry" />
        </mxCell>
        <mxCell id="gwc9V1HpgXU685YZ8IqW-168" value="money left &amp;gt;= 10" style="rhombus;whiteSpace=wrap;html=1;" parent="WIyWlLk6GJQsqaUBKTNV-1" vertex="1">
          <mxGeometry x="519.43" y="2480" width="178.6" height="55" as="geometry" />
        </mxCell>
        <mxCell id="gwc9V1HpgXU685YZ8IqW-293" value="" style="edgeStyle=orthogonalEdgeStyle;rounded=0;orthogonalLoop=1;jettySize=auto;html=1;" parent="WIyWlLk6GJQsqaUBKTNV-1" source="gwc9V1HpgXU685YZ8IqW-169" target="gwc9V1HpgXU685YZ8IqW-170" edge="1">
          <mxGeometry relative="1" as="geometry" />
        </mxCell>
        <mxCell id="gwc9V1HpgXU685YZ8IqW-169" value="10 bath = money left / 10" style="rounded=0;whiteSpace=wrap;html=1;" parent="WIyWlLk6GJQsqaUBKTNV-1" vertex="1">
          <mxGeometry x="729.5699999999999" y="2486.25" width="170" height="42.5" as="geometry" />
        </mxCell>
        <mxCell id="gwc9V1HpgXU685YZ8IqW-304" style="edgeStyle=orthogonalEdgeStyle;rounded=0;orthogonalLoop=1;jettySize=auto;html=1;exitX=1;exitY=0.5;exitDx=0;exitDy=0;entryX=1;entryY=0.5;entryDx=0;entryDy=0;" parent="WIyWlLk6GJQsqaUBKTNV-1" source="gwc9V1HpgXU685YZ8IqW-170" target="gwc9V1HpgXU685YZ8IqW-279" edge="1">
          <mxGeometry relative="1" as="geometry" />
        </mxCell>
        <mxCell id="gwc9V1HpgXU685YZ8IqW-170" value="money left = money left % 10" style="rounded=0;whiteSpace=wrap;html=1;" parent="WIyWlLk6GJQsqaUBKTNV-1" vertex="1">
          <mxGeometry x="929.5699999999999" y="2487.5" width="177.59" height="40" as="geometry" />
        </mxCell>
        <mxCell id="gwc9V1HpgXU685YZ8IqW-219" style="edgeStyle=orthogonalEdgeStyle;rounded=0;orthogonalLoop=1;jettySize=auto;html=1;exitX=0.5;exitY=1;exitDx=0;exitDy=0;entryX=0.5;entryY=0;entryDx=0;entryDy=0;" parent="WIyWlLk6GJQsqaUBKTNV-1" source="gwc9V1HpgXU685YZ8IqW-171" target="gwc9V1HpgXU685YZ8IqW-174" edge="1">
          <mxGeometry relative="1" as="geometry" />
        </mxCell>
        <mxCell id="gwc9V1HpgXU685YZ8IqW-294" value="" style="edgeStyle=orthogonalEdgeStyle;rounded=0;orthogonalLoop=1;jettySize=auto;html=1;" parent="WIyWlLk6GJQsqaUBKTNV-1" source="gwc9V1HpgXU685YZ8IqW-171" target="gwc9V1HpgXU685YZ8IqW-172" edge="1">
          <mxGeometry relative="1" as="geometry" />
        </mxCell>
        <mxCell id="gwc9V1HpgXU685YZ8IqW-171" value="money left &amp;gt;= 5" style="rhombus;whiteSpace=wrap;html=1;" parent="WIyWlLk6GJQsqaUBKTNV-1" vertex="1">
          <mxGeometry x="519.38" y="2560" width="178.6" height="55" as="geometry" />
        </mxCell>
        <mxCell id="gwc9V1HpgXU685YZ8IqW-295" value="" style="edgeStyle=orthogonalEdgeStyle;rounded=0;orthogonalLoop=1;jettySize=auto;html=1;" parent="WIyWlLk6GJQsqaUBKTNV-1" source="gwc9V1HpgXU685YZ8IqW-172" target="gwc9V1HpgXU685YZ8IqW-173" edge="1">
          <mxGeometry relative="1" as="geometry" />
        </mxCell>
        <mxCell id="gwc9V1HpgXU685YZ8IqW-172" value="5 bath = money left / 5" style="rounded=0;whiteSpace=wrap;html=1;" parent="WIyWlLk6GJQsqaUBKTNV-1" vertex="1">
          <mxGeometry x="729.5699999999999" y="2566.25" width="170" height="42.5" as="geometry" />
        </mxCell>
        <mxCell id="gwc9V1HpgXU685YZ8IqW-305" style="edgeStyle=orthogonalEdgeStyle;rounded=0;orthogonalLoop=1;jettySize=auto;html=1;exitX=1;exitY=0.5;exitDx=0;exitDy=0;entryX=1;entryY=0.5;entryDx=0;entryDy=0;" parent="WIyWlLk6GJQsqaUBKTNV-1" source="gwc9V1HpgXU685YZ8IqW-173" target="gwc9V1HpgXU685YZ8IqW-279" edge="1">
          <mxGeometry relative="1" as="geometry" />
        </mxCell>
        <mxCell id="gwc9V1HpgXU685YZ8IqW-173" value="money left = money left % 5" style="rounded=0;whiteSpace=wrap;html=1;" parent="WIyWlLk6GJQsqaUBKTNV-1" vertex="1">
          <mxGeometry x="929.5699999999999" y="2568.75" width="177.59" height="40" as="geometry" />
        </mxCell>
        <mxCell id="gwc9V1HpgXU685YZ8IqW-220" style="edgeStyle=orthogonalEdgeStyle;rounded=0;orthogonalLoop=1;jettySize=auto;html=1;exitX=0.5;exitY=1;exitDx=0;exitDy=0;entryX=0.5;entryY=0;entryDx=0;entryDy=0;" parent="WIyWlLk6GJQsqaUBKTNV-1" source="gwc9V1HpgXU685YZ8IqW-174" target="gwc9V1HpgXU685YZ8IqW-177" edge="1">
          <mxGeometry relative="1" as="geometry" />
        </mxCell>
        <mxCell id="gwc9V1HpgXU685YZ8IqW-296" value="" style="edgeStyle=orthogonalEdgeStyle;rounded=0;orthogonalLoop=1;jettySize=auto;html=1;" parent="WIyWlLk6GJQsqaUBKTNV-1" source="gwc9V1HpgXU685YZ8IqW-174" target="gwc9V1HpgXU685YZ8IqW-175" edge="1">
          <mxGeometry relative="1" as="geometry" />
        </mxCell>
        <mxCell id="gwc9V1HpgXU685YZ8IqW-174" value="money left &amp;gt;= 2" style="rhombus;whiteSpace=wrap;html=1;" parent="WIyWlLk6GJQsqaUBKTNV-1" vertex="1">
          <mxGeometry x="519.38" y="2640" width="178.6" height="55" as="geometry" />
        </mxCell>
        <mxCell id="gwc9V1HpgXU685YZ8IqW-297" value="" style="edgeStyle=orthogonalEdgeStyle;rounded=0;orthogonalLoop=1;jettySize=auto;html=1;" parent="WIyWlLk6GJQsqaUBKTNV-1" source="gwc9V1HpgXU685YZ8IqW-175" target="gwc9V1HpgXU685YZ8IqW-176" edge="1">
          <mxGeometry relative="1" as="geometry" />
        </mxCell>
        <mxCell id="gwc9V1HpgXU685YZ8IqW-175" value="2 bath = money left / 2" style="rounded=0;whiteSpace=wrap;html=1;" parent="WIyWlLk6GJQsqaUBKTNV-1" vertex="1">
          <mxGeometry x="729.5699999999999" y="2646.25" width="170" height="42.5" as="geometry" />
        </mxCell>
        <mxCell id="gwc9V1HpgXU685YZ8IqW-306" style="edgeStyle=orthogonalEdgeStyle;rounded=0;orthogonalLoop=1;jettySize=auto;html=1;exitX=1;exitY=0.5;exitDx=0;exitDy=0;entryX=1;entryY=0.5;entryDx=0;entryDy=0;" parent="WIyWlLk6GJQsqaUBKTNV-1" source="gwc9V1HpgXU685YZ8IqW-176" target="gwc9V1HpgXU685YZ8IqW-279" edge="1">
          <mxGeometry relative="1" as="geometry" />
        </mxCell>
        <mxCell id="gwc9V1HpgXU685YZ8IqW-176" value="money left = money left&amp;nbsp;% 2" style="rounded=0;whiteSpace=wrap;html=1;" parent="WIyWlLk6GJQsqaUBKTNV-1" vertex="1">
          <mxGeometry x="929.5699999999999" y="2648.75" width="177.59" height="40" as="geometry" />
        </mxCell>
        <mxCell id="gwc9V1HpgXU685YZ8IqW-221" style="edgeStyle=orthogonalEdgeStyle;rounded=0;orthogonalLoop=1;jettySize=auto;html=1;exitX=0.5;exitY=1;exitDx=0;exitDy=0;entryX=0.5;entryY=0;entryDx=0;entryDy=0;" parent="WIyWlLk6GJQsqaUBKTNV-1" source="gwc9V1HpgXU685YZ8IqW-177" target="gwc9V1HpgXU685YZ8IqW-182" edge="1">
          <mxGeometry relative="1" as="geometry" />
        </mxCell>
        <mxCell id="gwc9V1HpgXU685YZ8IqW-298" value="" style="edgeStyle=orthogonalEdgeStyle;rounded=0;orthogonalLoop=1;jettySize=auto;html=1;" parent="WIyWlLk6GJQsqaUBKTNV-1" source="gwc9V1HpgXU685YZ8IqW-177" target="gwc9V1HpgXU685YZ8IqW-178" edge="1">
          <mxGeometry relative="1" as="geometry" />
        </mxCell>
        <mxCell id="gwc9V1HpgXU685YZ8IqW-177" value="money left&amp;nbsp;&amp;gt;= 1" style="rhombus;whiteSpace=wrap;html=1;" parent="WIyWlLk6GJQsqaUBKTNV-1" vertex="1">
          <mxGeometry x="521.79" y="2720" width="178.6" height="55" as="geometry" />
        </mxCell>
        <mxCell id="gwc9V1HpgXU685YZ8IqW-299" value="" style="edgeStyle=orthogonalEdgeStyle;rounded=0;orthogonalLoop=1;jettySize=auto;html=1;" parent="WIyWlLk6GJQsqaUBKTNV-1" source="gwc9V1HpgXU685YZ8IqW-178" target="gwc9V1HpgXU685YZ8IqW-179" edge="1">
          <mxGeometry relative="1" as="geometry" />
        </mxCell>
        <mxCell id="gwc9V1HpgXU685YZ8IqW-178" value="1 bath = money left / 1" style="rounded=0;whiteSpace=wrap;html=1;" parent="WIyWlLk6GJQsqaUBKTNV-1" vertex="1">
          <mxGeometry x="729.5699999999999" y="2726.25" width="170" height="42.5" as="geometry" />
        </mxCell>
        <mxCell id="gwc9V1HpgXU685YZ8IqW-307" style="edgeStyle=orthogonalEdgeStyle;rounded=0;orthogonalLoop=1;jettySize=auto;html=1;exitX=1;exitY=0.5;exitDx=0;exitDy=0;entryX=1;entryY=0.5;entryDx=0;entryDy=0;" parent="WIyWlLk6GJQsqaUBKTNV-1" source="gwc9V1HpgXU685YZ8IqW-179" target="gwc9V1HpgXU685YZ8IqW-279" edge="1">
          <mxGeometry relative="1" as="geometry" />
        </mxCell>
        <mxCell id="gwc9V1HpgXU685YZ8IqW-179" value="money left&amp;nbsp;= money left&amp;nbsp;% 1" style="rounded=0;whiteSpace=wrap;html=1;" parent="WIyWlLk6GJQsqaUBKTNV-1" vertex="1">
          <mxGeometry x="929.5699999999999" y="2726.25" width="177.59" height="40" as="geometry" />
        </mxCell>
        <mxCell id="gwc9V1HpgXU685YZ8IqW-212" value="" style="edgeStyle=orthogonalEdgeStyle;rounded=0;orthogonalLoop=1;jettySize=auto;html=1;" parent="WIyWlLk6GJQsqaUBKTNV-1" source="gwc9V1HpgXU685YZ8IqW-180" target="gwc9V1HpgXU685YZ8IqW-181" edge="1">
          <mxGeometry relative="1" as="geometry" />
        </mxCell>
        <mxCell id="gwc9V1HpgXU685YZ8IqW-180" value="&lt;div style=&quot;text-align: justify;&quot;&gt;&lt;span style=&quot;background-color: transparent; color: light-dark(rgb(0, 0, 0), rgb(255, 255, 255));&quot;&gt;printf 1000 bath,&amp;nbsp;&lt;/span&gt;&lt;/div&gt;&lt;div style=&quot;text-align: justify;&quot;&gt;printf 500 bath,&lt;/div&gt;&lt;div style=&quot;text-align: justify;&quot;&gt;printf 100 bath,&lt;/div&gt;&lt;div style=&quot;text-align: justify;&quot;&gt;printf 50 bath,&lt;/div&gt;&lt;div style=&quot;text-align: justify;&quot;&gt;printf 10 bath,&lt;/div&gt;&lt;div style=&quot;text-align: justify;&quot;&gt;printf 5 bath,&lt;/div&gt;&lt;div style=&quot;text-align: justify;&quot;&gt;printf 2 bath,&lt;/div&gt;&lt;div style=&quot;text-align: justify;&quot;&gt;printf 1 bath&lt;/div&gt;" style="shape=parallelogram;perimeter=parallelogramPerimeter;whiteSpace=wrap;html=1;fixedSize=1;align=center;" parent="WIyWlLk6GJQsqaUBKTNV-1" vertex="1">
          <mxGeometry x="544.06" y="1940" width="133.07" height="140" as="geometry" />
        </mxCell>
        <mxCell id="gwc9V1HpgXU685YZ8IqW-281" value="" style="edgeStyle=orthogonalEdgeStyle;rounded=0;orthogonalLoop=1;jettySize=auto;html=1;" parent="WIyWlLk6GJQsqaUBKTNV-1" source="gwc9V1HpgXU685YZ8IqW-181" target="gwc9V1HpgXU685YZ8IqW-279" edge="1">
          <mxGeometry relative="1" as="geometry" />
        </mxCell>
        <mxCell id="gwc9V1HpgXU685YZ8IqW-181" value="money left =&amp;nbsp;&lt;span style=&quot;text-align: justify;&quot;&gt;remaining balance&lt;/span&gt;" style="rounded=0;whiteSpace=wrap;html=1;" parent="WIyWlLk6GJQsqaUBKTNV-1" vertex="1">
          <mxGeometry x="523.74" y="2100" width="175.01" height="40" as="geometry" />
        </mxCell>
        <mxCell id="gwc9V1HpgXU685YZ8IqW-223" value="" style="edgeStyle=orthogonalEdgeStyle;rounded=0;orthogonalLoop=1;jettySize=auto;html=1;" parent="WIyWlLk6GJQsqaUBKTNV-1" source="gwc9V1HpgXU685YZ8IqW-182" target="gwc9V1HpgXU685YZ8IqW-222" edge="1">
          <mxGeometry relative="1" as="geometry" />
        </mxCell>
        <mxCell id="gwc9V1HpgXU685YZ8IqW-182" value="&lt;div style=&quot;text-align: justify;&quot;&gt;total sales&lt;span style=&quot;background-color: transparent; color: light-dark(rgb(0, 0, 0), rgb(255, 255, 255)); text-align: center;&quot;&gt;&amp;nbsp;=&amp;nbsp;&lt;/span&gt;&lt;span style=&quot;background-color: transparent; color: light-dark(rgb(0, 0, 0), rgb(255, 255, 255));&quot;&gt;total sales +&amp;nbsp;&lt;/span&gt;&lt;span style=&quot;background-color: transparent; color: light-dark(rgb(0, 0, 0), rgb(255, 255, 255)); text-align: center;&quot;&gt;total price&lt;/span&gt;&lt;span style=&quot;background-color: transparent; color: light-dark(rgb(0, 0, 0), rgb(255, 255, 255));&quot;&gt;&amp;nbsp;&lt;/span&gt;&lt;/div&gt;" style="rounded=0;whiteSpace=wrap;html=1;" parent="WIyWlLk6GJQsqaUBKTNV-1" vertex="1">
          <mxGeometry x="512.8299999999999" y="2800" width="198.81" height="40" as="geometry" />
        </mxCell>
        <mxCell id="gwc9V1HpgXU685YZ8IqW-222" value="&lt;font face=&quot;Sarabun&quot;&gt;สิ้นสุด&lt;/font&gt;" style="ellipse;whiteSpace=wrap;html=1;" parent="WIyWlLk6GJQsqaUBKTNV-1" vertex="1">
          <mxGeometry x="547.56" y="2860" width="130" height="30" as="geometry" />
        </mxCell>
        <mxCell id="gwc9V1HpgXU685YZ8IqW-283" style="edgeStyle=orthogonalEdgeStyle;rounded=0;orthogonalLoop=1;jettySize=auto;html=1;exitX=0.5;exitY=1;exitDx=0;exitDy=0;entryX=0.5;entryY=0;entryDx=0;entryDy=0;" parent="WIyWlLk6GJQsqaUBKTNV-1" source="gwc9V1HpgXU685YZ8IqW-279" target="gwc9V1HpgXU685YZ8IqW-156" edge="1">
          <mxGeometry relative="1" as="geometry" />
        </mxCell>
        <mxCell id="gwc9V1HpgXU685YZ8IqW-279" value="" style="ellipse;whiteSpace=wrap;html=1;aspect=fixed;" parent="WIyWlLk6GJQsqaUBKTNV-1" vertex="1">
          <mxGeometry x="598.84" y="2160" width="23.5" height="23.5" as="geometry" />
        </mxCell>
        <mxCell id="ZdJQOE9qIbRuk4w-m4Bv-0" value="True" style="text;html=1;align=center;verticalAlign=middle;whiteSpace=wrap;rounded=0;" parent="WIyWlLk6GJQsqaUBKTNV-1" vertex="1">
          <mxGeometry x="687.85" y="570" width="60" height="30" as="geometry" />
        </mxCell>
        <mxCell id="ZdJQOE9qIbRuk4w-m4Bv-1" value="False" style="text;html=1;align=center;verticalAlign=middle;whiteSpace=wrap;rounded=0;" parent="WIyWlLk6GJQsqaUBKTNV-1" vertex="1">
          <mxGeometry x="550.59" y="630" width="60" height="30" as="geometry" />
        </mxCell>
        <mxCell id="ZdJQOE9qIbRuk4w-m4Bv-2" value="True" style="text;html=1;align=center;verticalAlign=middle;whiteSpace=wrap;rounded=0;" parent="WIyWlLk6GJQsqaUBKTNV-1" vertex="1">
          <mxGeometry x="756.09" y="680" width="60" height="30" as="geometry" />
        </mxCell>
        <mxCell id="ZdJQOE9qIbRuk4w-m4Bv-3" value="True" style="text;html=1;align=center;verticalAlign=middle;whiteSpace=wrap;rounded=0;" parent="WIyWlLk6GJQsqaUBKTNV-1" vertex="1">
          <mxGeometry x="980" y="730" width="60" height="30" as="geometry" />
        </mxCell>
        <mxCell id="ZdJQOE9qIbRuk4w-m4Bv-4" value="True" style="text;html=1;align=center;verticalAlign=middle;whiteSpace=wrap;rounded=0;" parent="WIyWlLk6GJQsqaUBKTNV-1" vertex="1">
          <mxGeometry x="1190" y="780" width="60" height="30" as="geometry" />
        </mxCell>
        <mxCell id="ZdJQOE9qIbRuk4w-m4Bv-5" value="True" style="text;html=1;align=center;verticalAlign=middle;whiteSpace=wrap;rounded=0;" parent="WIyWlLk6GJQsqaUBKTNV-1" vertex="1">
          <mxGeometry x="1420" y="835" width="60" height="30" as="geometry" />
        </mxCell>
        <mxCell id="ZdJQOE9qIbRuk4w-m4Bv-6" value="True" style="text;html=1;align=center;verticalAlign=middle;whiteSpace=wrap;rounded=0;" parent="WIyWlLk6GJQsqaUBKTNV-1" vertex="1">
          <mxGeometry x="1650" y="883.5" width="60" height="30" as="geometry" />
        </mxCell>
        <mxCell id="ZdJQOE9qIbRuk4w-m4Bv-7" value="True" style="text;html=1;align=center;verticalAlign=middle;whiteSpace=wrap;rounded=0;" parent="WIyWlLk6GJQsqaUBKTNV-1" vertex="1">
          <mxGeometry x="1900" y="930" width="60" height="30" as="geometry" />
        </mxCell>
        <mxCell id="ZdJQOE9qIbRuk4w-m4Bv-8" value="True" style="text;html=1;align=center;verticalAlign=middle;whiteSpace=wrap;rounded=0;" parent="WIyWlLk6GJQsqaUBKTNV-1" vertex="1">
          <mxGeometry x="2120" y="980" width="60" height="30" as="geometry" />
        </mxCell>
        <mxCell id="ZdJQOE9qIbRuk4w-m4Bv-9" value="False" style="text;html=1;align=center;verticalAlign=middle;whiteSpace=wrap;rounded=0;" parent="WIyWlLk6GJQsqaUBKTNV-1" vertex="1">
          <mxGeometry x="885.23" y="630" width="60" height="30" as="geometry" />
        </mxCell>
        <mxCell id="ZdJQOE9qIbRuk4w-m4Bv-10" value="False" style="text;html=1;align=center;verticalAlign=middle;whiteSpace=wrap;rounded=0;" parent="WIyWlLk6GJQsqaUBKTNV-1" vertex="1">
          <mxGeometry x="1107.16" y="680" width="60" height="30" as="geometry" />
        </mxCell>
        <mxCell id="ZdJQOE9qIbRuk4w-m4Bv-11" value="False" style="text;html=1;align=center;verticalAlign=middle;whiteSpace=wrap;rounded=0;" parent="WIyWlLk6GJQsqaUBKTNV-1" vertex="1">
          <mxGeometry x="1306.01" y="730" width="60" height="30" as="geometry" />
        </mxCell>
        <mxCell id="ZdJQOE9qIbRuk4w-m4Bv-12" value="False" style="text;html=1;align=center;verticalAlign=middle;whiteSpace=wrap;rounded=0;" parent="WIyWlLk6GJQsqaUBKTNV-1" vertex="1">
          <mxGeometry x="1540" y="780" width="60" height="30" as="geometry" />
        </mxCell>
        <mxCell id="ZdJQOE9qIbRuk4w-m4Bv-13" value="False" style="text;html=1;align=center;verticalAlign=middle;whiteSpace=wrap;rounded=0;" parent="WIyWlLk6GJQsqaUBKTNV-1" vertex="1">
          <mxGeometry x="1785.81" y="820" width="60" height="30" as="geometry" />
        </mxCell>
        <mxCell id="ZdJQOE9qIbRuk4w-m4Bv-16" value="False" style="text;html=1;align=center;verticalAlign=middle;whiteSpace=wrap;rounded=0;" parent="WIyWlLk6GJQsqaUBKTNV-1" vertex="1">
          <mxGeometry x="2045.81" y="870" width="60" height="30" as="geometry" />
        </mxCell>
        <mxCell id="ZdJQOE9qIbRuk4w-m4Bv-17" value="False" style="text;html=1;align=center;verticalAlign=middle;whiteSpace=wrap;rounded=0;" parent="WIyWlLk6GJQsqaUBKTNV-1" vertex="1">
          <mxGeometry x="2249.07" y="920" width="60" height="30" as="geometry" />
        </mxCell>
        <mxCell id="ZdJQOE9qIbRuk4w-m4Bv-20" value="False" style="text;html=1;align=center;verticalAlign=middle;whiteSpace=wrap;rounded=0;" parent="WIyWlLk6GJQsqaUBKTNV-1" vertex="1">
          <mxGeometry x="450" y="1050" width="60" height="30" as="geometry" />
        </mxCell>
        <mxCell id="ZdJQOE9qIbRuk4w-m4Bv-21" value="True" style="text;html=1;align=center;verticalAlign=middle;whiteSpace=wrap;rounded=0;" parent="WIyWlLk6GJQsqaUBKTNV-1" vertex="1">
          <mxGeometry x="623.34" y="1090" width="60" height="30" as="geometry" />
        </mxCell>
        <mxCell id="ZdJQOE9qIbRuk4w-m4Bv-22" value="True" style="text;html=1;align=center;verticalAlign=middle;whiteSpace=wrap;rounded=0;" parent="WIyWlLk6GJQsqaUBKTNV-1" vertex="1">
          <mxGeometry x="670.59" y="1280" width="60" height="30" as="geometry" />
        </mxCell>
        <mxCell id="ZdJQOE9qIbRuk4w-m4Bv-24" value="" style="edgeStyle=orthogonalEdgeStyle;rounded=0;orthogonalLoop=1;jettySize=auto;html=1;exitX=1;exitY=0.5;exitDx=0;exitDy=0;entryX=0;entryY=0.5;entryDx=0;entryDy=0;" parent="WIyWlLk6GJQsqaUBKTNV-1" source="gwc9V1HpgXU685YZ8IqW-131" target="ZdJQOE9qIbRuk4w-m4Bv-23" edge="1">
          <mxGeometry relative="1" as="geometry">
            <mxPoint x="699" y="1378" as="sourcePoint" />
            <mxPoint x="726" y="1378" as="targetPoint" />
          </mxGeometry>
        </mxCell>
        <mxCell id="ZdJQOE9qIbRuk4w-m4Bv-23" value="True" style="text;html=1;align=center;verticalAlign=middle;whiteSpace=wrap;rounded=0;" parent="WIyWlLk6GJQsqaUBKTNV-1" vertex="1">
          <mxGeometry x="670.59" y="1350" width="60" height="30" as="geometry" />
        </mxCell>
        <mxCell id="ZdJQOE9qIbRuk4w-m4Bv-25" value="True" style="text;html=1;align=center;verticalAlign=middle;whiteSpace=wrap;rounded=0;" parent="WIyWlLk6GJQsqaUBKTNV-1" vertex="1">
          <mxGeometry x="669.57" y="1420" width="60" height="30" as="geometry" />
        </mxCell>
        <mxCell id="ZdJQOE9qIbRuk4w-m4Bv-26" value="True" style="text;html=1;align=center;verticalAlign=middle;whiteSpace=wrap;rounded=0;" parent="WIyWlLk6GJQsqaUBKTNV-1" vertex="1">
          <mxGeometry x="675.6" y="1490" width="60" height="30" as="geometry" />
        </mxCell>
        <mxCell id="ZdJQOE9qIbRuk4w-m4Bv-27" value="True" style="text;html=1;align=center;verticalAlign=middle;whiteSpace=wrap;rounded=0;" parent="WIyWlLk6GJQsqaUBKTNV-1" vertex="1">
          <mxGeometry x="677.13" y="1560" width="60" height="30" as="geometry" />
        </mxCell>
        <mxCell id="ZdJQOE9qIbRuk4w-m4Bv-28" value="True" style="text;html=1;align=center;verticalAlign=middle;whiteSpace=wrap;rounded=0;" parent="WIyWlLk6GJQsqaUBKTNV-1" vertex="1">
          <mxGeometry x="675.6" y="1630" width="60" height="30" as="geometry" />
        </mxCell>
        <mxCell id="ZdJQOE9qIbRuk4w-m4Bv-30" value="True" style="text;html=1;align=center;verticalAlign=middle;whiteSpace=wrap;rounded=0;" parent="WIyWlLk6GJQsqaUBKTNV-1" vertex="1">
          <mxGeometry x="678.74" y="1710" width="60" height="30" as="geometry" />
        </mxCell>
        <mxCell id="ZdJQOE9qIbRuk4w-m4Bv-31" value="True" style="text;html=1;align=center;verticalAlign=middle;whiteSpace=wrap;rounded=0;" parent="WIyWlLk6GJQsqaUBKTNV-1" vertex="1">
          <mxGeometry x="677.13" y="1790" width="60" height="30" as="geometry" />
        </mxCell>
        <mxCell id="ZdJQOE9qIbRuk4w-m4Bv-32" value="True" style="text;html=1;align=center;verticalAlign=middle;whiteSpace=wrap;rounded=0;" parent="WIyWlLk6GJQsqaUBKTNV-1" vertex="1">
          <mxGeometry x="675.6" y="2190" width="60" height="30" as="geometry" />
        </mxCell>
        <mxCell id="ZdJQOE9qIbRuk4w-m4Bv-33" value="True" style="text;html=1;align=center;verticalAlign=middle;whiteSpace=wrap;rounded=0;" parent="WIyWlLk6GJQsqaUBKTNV-1" vertex="1">
          <mxGeometry x="670.59" y="2260" width="60" height="30" as="geometry" />
        </mxCell>
        <mxCell id="ZdJQOE9qIbRuk4w-m4Bv-34" value="True" style="text;html=1;align=center;verticalAlign=middle;whiteSpace=wrap;rounded=0;" parent="WIyWlLk6GJQsqaUBKTNV-1" vertex="1">
          <mxGeometry x="669.57" y="2325" width="60" height="30" as="geometry" />
        </mxCell>
        <mxCell id="ZdJQOE9qIbRuk4w-m4Bv-35" value="True" style="text;html=1;align=center;verticalAlign=middle;whiteSpace=wrap;rounded=0;" parent="WIyWlLk6GJQsqaUBKTNV-1" vertex="1">
          <mxGeometry x="670.59" y="2400" width="60" height="30" as="geometry" />
        </mxCell>
        <mxCell id="ZdJQOE9qIbRuk4w-m4Bv-36" value="True" style="text;html=1;align=center;verticalAlign=middle;whiteSpace=wrap;rounded=0;" parent="WIyWlLk6GJQsqaUBKTNV-1" vertex="1">
          <mxGeometry x="675.6" y="2470" width="60" height="30" as="geometry" />
        </mxCell>
        <mxCell id="ZdJQOE9qIbRuk4w-m4Bv-37" value="True" style="text;html=1;align=center;verticalAlign=middle;whiteSpace=wrap;rounded=0;" parent="WIyWlLk6GJQsqaUBKTNV-1" vertex="1">
          <mxGeometry x="677.13" y="2550" width="60" height="30" as="geometry" />
        </mxCell>
        <mxCell id="ZdJQOE9qIbRuk4w-m4Bv-38" value="True" style="text;html=1;align=center;verticalAlign=middle;whiteSpace=wrap;rounded=0;" parent="WIyWlLk6GJQsqaUBKTNV-1" vertex="1">
          <mxGeometry x="675.6" y="2630" width="60" height="30" as="geometry" />
        </mxCell>
        <mxCell id="ZdJQOE9qIbRuk4w-m4Bv-39" value="True" style="text;html=1;align=center;verticalAlign=middle;whiteSpace=wrap;rounded=0;" parent="WIyWlLk6GJQsqaUBKTNV-1" vertex="1">
          <mxGeometry x="678.74" y="2710" width="60" height="30" as="geometry" />
        </mxCell>
        <mxCell id="ZdJQOE9qIbRuk4w-m4Bv-40" value="False" style="text;html=1;align=center;verticalAlign=middle;whiteSpace=wrap;rounded=0;" parent="WIyWlLk6GJQsqaUBKTNV-1" vertex="1">
          <mxGeometry x="550.59" y="1328.75" width="60" height="30" as="geometry" />
        </mxCell>
        <mxCell id="ZdJQOE9qIbRuk4w-m4Bv-41" value="False" style="text;html=1;align=center;verticalAlign=middle;whiteSpace=wrap;rounded=0;" parent="WIyWlLk6GJQsqaUBKTNV-1" vertex="1">
          <mxGeometry x="550.59" y="1396.25" width="60" height="30" as="geometry" />
        </mxCell>
        <mxCell id="ZdJQOE9qIbRuk4w-m4Bv-42" value="False" style="text;html=1;align=center;verticalAlign=middle;whiteSpace=wrap;rounded=0;" parent="WIyWlLk6GJQsqaUBKTNV-1" vertex="1">
          <mxGeometry x="547.56" y="1468.75" width="60" height="30" as="geometry" />
        </mxCell>
        <mxCell id="ZdJQOE9qIbRuk4w-m4Bv-43" value="False" style="text;html=1;align=center;verticalAlign=middle;whiteSpace=wrap;rounded=0;" parent="WIyWlLk6GJQsqaUBKTNV-1" vertex="1">
          <mxGeometry x="540.26" y="1536.25" width="60" height="30" as="geometry" />
        </mxCell>
        <mxCell id="ZdJQOE9qIbRuk4w-m4Bv-44" value="False" style="text;html=1;align=center;verticalAlign=middle;whiteSpace=wrap;rounded=0;" parent="WIyWlLk6GJQsqaUBKTNV-1" vertex="1">
          <mxGeometry x="550.59" y="1615" width="60" height="30" as="geometry" />
        </mxCell>
        <mxCell id="ZdJQOE9qIbRuk4w-m4Bv-45" value="False" style="text;html=1;align=center;verticalAlign=middle;whiteSpace=wrap;rounded=0;" parent="WIyWlLk6GJQsqaUBKTNV-1" vertex="1">
          <mxGeometry x="545.6" y="1688.75" width="60" height="30" as="geometry" />
        </mxCell>
        <mxCell id="ZdJQOE9qIbRuk4w-m4Bv-46" value="False" style="text;html=1;align=center;verticalAlign=middle;whiteSpace=wrap;rounded=0;" parent="WIyWlLk6GJQsqaUBKTNV-1" vertex="1">
          <mxGeometry x="547.56" y="1775" width="60" height="30" as="geometry" />
        </mxCell>
        <mxCell id="ZdJQOE9qIbRuk4w-m4Bv-47" value="False" style="text;html=1;align=center;verticalAlign=middle;whiteSpace=wrap;rounded=0;" parent="WIyWlLk6GJQsqaUBKTNV-1" vertex="1">
          <mxGeometry x="540.26" y="2246.25" width="60" height="30" as="geometry" />
        </mxCell>
        <mxCell id="ZdJQOE9qIbRuk4w-m4Bv-48" value="False" style="text;html=1;align=center;verticalAlign=middle;whiteSpace=wrap;rounded=0;" parent="WIyWlLk6GJQsqaUBKTNV-1" vertex="1">
          <mxGeometry x="544.06" y="2316.25" width="60" height="30" as="geometry" />
        </mxCell>
        <mxCell id="ZdJQOE9qIbRuk4w-m4Bv-49" value="False" style="text;html=1;align=center;verticalAlign=middle;whiteSpace=wrap;rounded=0;" parent="WIyWlLk6GJQsqaUBKTNV-1" vertex="1">
          <mxGeometry x="540" y="2386.25" width="60" height="30" as="geometry" />
        </mxCell>
        <mxCell id="ZdJQOE9qIbRuk4w-m4Bv-50" value="False" style="text;html=1;align=center;verticalAlign=middle;whiteSpace=wrap;rounded=0;" parent="WIyWlLk6GJQsqaUBKTNV-1" vertex="1">
          <mxGeometry x="536.4300000000001" y="2457.5" width="60" height="30" as="geometry" />
        </mxCell>
        <mxCell id="ZdJQOE9qIbRuk4w-m4Bv-51" value="False" style="text;html=1;align=center;verticalAlign=middle;whiteSpace=wrap;rounded=0;" parent="WIyWlLk6GJQsqaUBKTNV-1" vertex="1">
          <mxGeometry x="544.06" y="2530" width="60" height="30" as="geometry" />
        </mxCell>
        <mxCell id="ZdJQOE9qIbRuk4w-m4Bv-52" value="False" style="text;html=1;align=center;verticalAlign=middle;whiteSpace=wrap;rounded=0;" parent="WIyWlLk6GJQsqaUBKTNV-1" vertex="1">
          <mxGeometry x="540" y="2610" width="60" height="30" as="geometry" />
        </mxCell>
        <mxCell id="ZdJQOE9qIbRuk4w-m4Bv-53" value="False" style="text;html=1;align=center;verticalAlign=middle;whiteSpace=wrap;rounded=0;" parent="WIyWlLk6GJQsqaUBKTNV-1" vertex="1">
          <mxGeometry x="540.26" y="2690" width="60" height="30" as="geometry" />
        </mxCell>
        <mxCell id="ZdJQOE9qIbRuk4w-m4Bv-54" value="False" style="text;html=1;align=center;verticalAlign=middle;whiteSpace=wrap;rounded=0;" parent="WIyWlLk6GJQsqaUBKTNV-1" vertex="1">
          <mxGeometry x="531.68" y="2766.25" width="60" height="30" as="geometry" />
        </mxCell>
        <mxCell id="yZe0aA9HB4QeWu0gWXZc-1" value="False" style="text;html=1;align=center;verticalAlign=middle;whiteSpace=wrap;rounded=0;" parent="WIyWlLk6GJQsqaUBKTNV-1" vertex="1">
          <mxGeometry x="544.06" y="800" width="60" height="30" as="geometry" />
        </mxCell>
        <mxCell id="yZe0aA9HB4QeWu0gWXZc-2" value="True" style="text;html=1;align=center;verticalAlign=middle;whiteSpace=wrap;rounded=0;" parent="WIyWlLk6GJQsqaUBKTNV-1" vertex="1">
          <mxGeometry x="452.83" y="740" width="60" height="30" as="geometry" />
        </mxCell>
        <mxCell id="yZe0aA9HB4QeWu0gWXZc-3" value="False" style="text;html=1;align=center;verticalAlign=middle;whiteSpace=wrap;rounded=0;" parent="WIyWlLk6GJQsqaUBKTNV-1" vertex="1">
          <mxGeometry x="604.06" y="1855" width="60" height="30" as="geometry" />
        </mxCell>
      </root>
    </mxGraphModel>
  </diagram>
</mxfile>
